<?xml version="1.0" encoding="utf-8"?>
<!-- Generator: Adobe Illustrator 27.2.0, SVG Export Plug-In . SVG Version: 6.00 Build 0)  -->
<svg version="1.1" id="Слой_9" xmlns="http://www.w3.org/2000/svg" xmlns:xlink="http://www.w3.org/1999/xlink" x="0px" y="0px"
	 viewBox="0 0 500 500" style="enable-background:new 0 0 500 500;" xml:space="preserve">
<style type="text/css">
	.st0{fill:#FFFFFF;}
	.st1{fill:#82D8D1;}
	.st2{fill:#FCD5B7;}
	.st3{fill:#F6A667;}
	.st4{fill:#F98638;}
	.st5{fill:#EC6907;}
	.st6{fill:url(#SVGID_1_);}
	.st7{fill:url(#SVGID_00000096033308946184969210000017404696329156265144_);}
	.st8{fill:#1E81CE;}
	.st9{fill:#0B71B7;}
	.st10{fill:#0067A0;}
	.st11{fill:#005377;}
	.st12{fill:#9BC9FF;}
	.st13{fill:url(#SVGID_00000126287756555858634720000017213285648968505494_);}
	.st14{fill:url(#SVGID_00000159450822487194761890000014402262902888509624_);}
	.st15{fill:url(#SVGID_00000080177043269443518080000013378417513836572558_);}
	.st16{fill:url(#SVGID_00000100357995804780848250000012995513971059065264_);}
	.st17{fill:url(#SVGID_00000148652329811899581210000016950357195455709093_);}
	.st18{fill:url(#SVGID_00000080893023349317397640000010850580711874982841_);}
	.st19{fill:url(#SVGID_00000071527288644165623470000007022872073867202456_);}
	.st20{fill:url(#SVGID_00000076567713678927241100000010584866836978427559_);}
	.st21{fill:url(#SVGID_00000106870115477196861750000010972375676366382262_);}
	.st22{fill:url(#SVGID_00000182499606657466238880000018018825967136444819_);}
	.st23{fill:url(#SVGID_00000044141441147442650390000004302601497099780500_);}
	.st24{fill:url(#SVGID_00000065055908866349608690000001805198268038714008_);}
	.st25{fill:url(#SVGID_00000160160348454211405390000014852751930547608247_);}
	.st26{fill:url(#SVGID_00000162330351039527905130000007388751500156563390_);}
	.st27{fill:url(#SVGID_00000088851809051435609200000008772246302333293485_);}
	.st28{fill:url(#SVGID_00000112632176980660600770000001168410225188845697_);}
	.st29{fill:url(#SVGID_00000125589274075905619310000005301135434022497456_);}
	.st30{fill:url(#SVGID_00000047028702110413440680000000644673059170986656_);}
	.st31{fill:url(#SVGID_00000041974317104014506720000016616205576587868032_);}
	.st32{fill:url(#SVGID_00000028290029714681570150000013119149952977488056_);}
	.st33{fill:url(#SVGID_00000096745049002518323210000009948049458333783464_);}
	.st34{fill:url(#SVGID_00000121239315026022920200000003972578823046299062_);}
	.st35{fill:url(#SVGID_00000090272914192367209180000014072933302369471630_);}
	.st36{fill:url(#SVGID_00000108996757137224224930000004973572661274381189_);}
	.st37{fill:url(#SVGID_00000093856162698537560650000018273412911677214639_);}
	.st38{fill:url(#SVGID_00000120533958389560672160000003926507532561610897_);}
	.st39{fill:url(#SVGID_00000126318478727357927540000006208614157112966038_);}
	.st40{fill:url(#SVGID_00000180365656541567110100000001614480006352624308_);}
	.st41{fill:url(#SVGID_00000127024793162469841530000015637144005514940351_);}
	.st42{fill:url(#SVGID_00000050652518568797305250000014672738060549522075_);}
	.st43{fill:url(#SVGID_00000078003825272485216680000004564345904711740312_);}
	.st44{fill:url(#SVGID_00000075130724529298367310000004639586071600216255_);}
	.st45{fill:url(#SVGID_00000142144608211745762430000013970867316157612454_);}
	.st46{fill:url(#SVGID_00000134208298712756292490000006938612786804892080_);}
	.st47{fill:url(#SVGID_00000059303689422518511310000011360348078715075769_);}
	.st48{fill:url(#SVGID_00000116203486314713458340000013170371693864345527_);}
	.st49{fill:url(#SVGID_00000134967214637277368090000012580374365912354219_);}
	.st50{fill:url(#SVGID_00000108288800990985853350000009885609865888468130_);}
	.st51{fill:url(#SVGID_00000072238452048689076990000003430532350347701381_);}
	.st52{fill:url(#SVGID_00000162311990263095510950000015519981608587297197_);}
	.st53{fill:url(#SVGID_00000155868379676794310250000000784743294929857924_);}
	.st54{fill:url(#SVGID_00000129909200939947009680000015166940849276874675_);}
	.st55{fill-rule:evenodd;clip-rule:evenodd;fill:#82D8D1;}
	.st56{fill:url(#SVGID_00000013157548997065335690000000183051898548251580_);}
	.st57{fill:url(#SVGID_00000134930340946165013920000017516192077328006837_);}
	.st58{fill:url(#SVGID_00000054952257560075772780000014248376648954492598_);}
	.st59{fill:url(#SVGID_00000151526628110519041420000017235116386299416505_);}
	.st60{fill:url(#SVGID_00000116232908128994575860000004506515941723664825_);}
	.st61{fill:url(#SVGID_00000015343945676784744030000013928471282939145369_);}
	.st62{fill:url(#SVGID_00000030473870107143820290000012180241365678305926_);}
	.st63{fill:url(#SVGID_00000137131170332645835480000008991089598459833495_);}
	.st64{fill:url(#SVGID_00000114043863034655017210000018077919872649449394_);}
	.st65{fill:url(#SVGID_00000145743124115225954270000010849974669645816719_);}
	.st66{fill:url(#SVGID_00000167362248228228428750000009935319432493975218_);}
	.st67{fill:url(#SVGID_00000057135028745616081350000010270961277708862373_);}
	.st68{fill:url(#SVGID_00000010998577126901880170000004412005186437305992_);}
	.st69{fill:url(#SVGID_00000159454247354561382700000014682596984717638274_);}
	.st70{fill:url(#SVGID_00000176739869400552866660000009060136552908139440_);}
	.st71{fill:url(#SVGID_00000165224158047114935050000006405345994299657114_);}
	.st72{fill:url(#SVGID_00000000941932523524372290000015592212808168625301_);}
	.st73{fill:url(#SVGID_00000094601127544843577420000001326942345504872331_);}
	.st74{fill:url(#SVGID_00000173142616504382703630000012724802259166654084_);}
	.st75{fill:url(#SVGID_00000063599566203743017290000003292637883383413888_);}
	.st76{fill:url(#SVGID_00000182493265336542938400000017245914201950306978_);}
	.st77{fill:url(#SVGID_00000026146545532631564180000008625751871687115940_);}
	.st78{fill:url(#SVGID_00000100355219987590334690000001749046540490437302_);}
	.st79{fill:url(#SVGID_00000143606624959317851150000005512397474244208831_);}
	.st80{fill:url(#SVGID_00000018945757177039514170000000548512299731727517_);}
	.st81{fill:url(#SVGID_00000112607337466935492260000017255351787292492674_);}
	.st82{fill:url(#SVGID_00000158720509069300911630000018083795388271687089_);}
	.st83{fill:url(#SVGID_00000021095263662104666690000000423246105961336505_);}
	.st84{fill:url(#SVGID_00000026154049503400586380000007215881136705278358_);}
	.st85{fill:url(#SVGID_00000107590059267094188970000006569761675444889517_);}
	.st86{fill:url(#SVGID_00000044863317995292477000000007949519060343097231_);}
	.st87{fill:url(#SVGID_00000102520025045739009580000011861157638128709003_);}
	.st88{fill:url(#SVGID_00000169537827439753112800000005242927298196493733_);}
	.st89{fill:url(#SVGID_00000142150140648450339720000007086113027640353934_);}
	.st90{fill:url(#SVGID_00000122690666722945517810000013212763083519172480_);}
	.st91{fill:url(#SVGID_00000123432986502868187910000009769538440695113361_);}
	.st92{fill:url(#SVGID_00000079485301207600952020000015619843078809475774_);}
	.st93{fill:url(#SVGID_00000016066116292313712550000003139442190194123413_);}
	.st94{fill:url(#SVGID_00000105415129169555086760000010804947726856905102_);}
	.st95{fill:url(#SVGID_00000012430854926904704860000003007554241359835807_);}
	.st96{fill:url(#SVGID_00000096029121666315097060000005324297006799507384_);}
	.st97{fill:url(#SVGID_00000124859768597669456390000005849755447275662745_);}
	.st98{fill:url(#SVGID_00000146496366148246092610000007857418458577469096_);}
	.st99{fill:url(#SVGID_00000023989557884305227210000017226094060649629097_);}
	.st100{fill:url(#SVGID_00000083798237410177851820000001136723698438247045_);}
	.st101{fill:url(#SVGID_00000045596007912948831700000013201909394664112029_);}
	.st102{fill:url(#SVGID_00000115503466025254597700000010402079345855400602_);}
	.st103{fill:url(#SVGID_00000091714685120930881510000016495227534000578476_);}
	.st104{fill:url(#SVGID_00000155865915531895870880000018345578102169275817_);}
	.st105{fill:url(#SVGID_00000098919498490674325040000004669212043059954620_);}
	.st106{fill:url(#SVGID_00000036933791331919867340000010751592570401331847_);}
	.st107{fill:url(#SVGID_00000173157363648088610450000015746174039211514298_);}
	.st108{fill:url(#SVGID_00000070832304272691756870000008272876223641847990_);}
	.st109{fill:url(#SVGID_00000067940936631650447110000003382315852942839731_);}
	.st110{fill:url(#SVGID_00000049915132803293430490000016379746900924671924_);}
	.st111{fill:url(#SVGID_00000092452902647178634370000010459126245611082940_);}
	.st112{fill:url(#SVGID_00000142880535503675078110000015485741249999063435_);}
	.st113{fill:url(#SVGID_00000129163937504063227390000013930926216768026036_);}
	.st114{fill:url(#SVGID_00000084499733935501289600000011713704885870290582_);}
	.st115{fill:url(#SVGID_00000122718932829056139940000016309580705477725360_);}
	.st116{fill:url(#SVGID_00000015332116494437764590000001654267090627767960_);}
	.st117{fill:url(#SVGID_00000114067943964492134670000012099526775551096216_);}
	.st118{fill:url(#SVGID_00000182488020761175889180000010538502537680691132_);}
	.st119{fill:url(#SVGID_00000145027268794232462130000006810896890477560508_);}
	.st120{fill:url(#SVGID_00000029728601955180042440000013870571685131614850_);}
	.st121{fill:url(#SVGID_00000069357423632388412170000003268671606341682105_);}
	.st122{fill:url(#SVGID_00000103259547584949925630000017762510725639309757_);}
</style>
<g>
	<g>
		<polygon class="st12" points="98.6,432 393.2,432 380.1,354.5 111.8,354.5 		"/>
	</g>
	<g>
		<g>
			<path class="st1" d="M348.1,378v-15.5h-15.7V378H348.1z M355.6,409.1v15.5h15.7v-15.5H355.6z M371.3,401v-15.5h-15.7V401H371.3z
				 M371.3,378v-15.5h-15.7V378H371.3z M254.1,378v-15.5h-15.7V378H254.1z M254.1,401v-15.5h-15.7V401H254.1z M277.3,378v-15.5
				h-15.7V378H277.3z M277.3,401v-15.5h-15.7V401H277.3z M301.1,378v-15.5h-15.7V378H301.1z M301.1,401v-15.5h-15.7V401H301.1z
				 M301.1,424.6v-15.5h-15.7v15.5H301.1z M324.3,378v-15.5h-15.7V378H324.3z M324.3,401v-15.5h-15.7V401H324.3z M324.3,424.6v-15.5
				h-15.7v15.5H324.3z M348.1,409.1h-15.7v15.5h15.7V409.1z M348.1,385.5h-15.7V401h15.7V385.5z M136.2,378v-15.5h-15.7V378H136.2z
				 M136.2,401v-15.5h-15.7V401H136.2z M136.2,424.6v-15.5h-15.7v15.5H136.2z M160,378v-15.5h-15.7V378H160z M160,401v-15.5h-15.7
				V401H160z M160,424.6v-15.5h-15.7v15.5H160z M183.2,378v-15.5h-15.7V378H183.2z M183.2,401v-15.5h-15.7V401H183.2z M183.2,424.6
				v-15.5h-15.7v15.5H183.2z M207.1,378v-15.5h-15.7V378H207.1z M207.1,401v-15.5h-15.7V401H207.1z M277.3,409.1h-85.9v15.5h85.9
				V409.1z M214.6,362.5V378h15.7v-15.5H214.6z M214.6,401h15.7v-15.5h-15.7V401z M387,347l15.7,93.1H89.2l15.7-93.1H387z"/>
		</g>
		<g>
			<linearGradient id="SVGID_1_" gradientUnits="userSpaceOnUse" x1="120.3893" y1="675.1763" x2="521.6421" y2="248.702">
				<stop  offset="0" style="stop-color:#26C9C4"/>
				<stop  offset="1" style="stop-color:#0E490C"/>
			</linearGradient>
			<rect x="355.6" y="409.1" class="st6" width="15.7" height="15.5"/>
		</g>
		<g>
			
				<linearGradient id="SVGID_00000032619900534612072460000013785154150939750814_" gradientUnits="userSpaceOnUse" x1="108.6186" y1="664.1017" x2="509.8714" y2="237.6274">
				<stop  offset="0" style="stop-color:#26C9C4"/>
				<stop  offset="1" style="stop-color:#0E490C"/>
			</linearGradient>
			
				<rect x="355.6" y="385.5" style="fill:url(#SVGID_00000032619900534612072460000013785154150939750814_);" width="15.7" height="15.5"/>
		</g>
		<g>
			
				<linearGradient id="SVGID_00000044173337565140666070000009907095598183496323_" gradientUnits="userSpaceOnUse" x1="97.1564" y1="653.3174" x2="498.4092" y2="226.8431">
				<stop  offset="0" style="stop-color:#26C9C4"/>
				<stop  offset="1" style="stop-color:#0E490C"/>
			</linearGradient>
			
				<rect x="355.6" y="362.5" style="fill:url(#SVGID_00000044173337565140666070000009907095598183496323_);" width="15.7" height="15.5"/>
		</g>
		<g>
			
				<linearGradient id="SVGID_00000102509542060715297540000011946285725385638789_" gradientUnits="userSpaceOnUse" x1="108.0862" y1="663.6008" x2="509.339" y2="237.1264">
				<stop  offset="0" style="stop-color:#26C9C4"/>
				<stop  offset="1" style="stop-color:#0E490C"/>
			</linearGradient>
			
				<rect x="332.4" y="409.1" style="fill:url(#SVGID_00000102509542060715297540000011946285725385638789_);" width="15.7" height="15.5"/>
		</g>
		<g>
			
				<linearGradient id="SVGID_00000152970050271544148770000009044140616539444917_" gradientUnits="userSpaceOnUse" x1="96.3155" y1="652.5262" x2="497.5682" y2="226.0518">
				<stop  offset="0" style="stop-color:#26C9C4"/>
				<stop  offset="1" style="stop-color:#0E490C"/>
			</linearGradient>
			
				<rect x="332.4" y="385.5" style="fill:url(#SVGID_00000152970050271544148770000009044140616539444917_);" width="15.7" height="15.5"/>
		</g>
		<g>
			
				<linearGradient id="SVGID_00000117665270537096448500000009179099586381757841_" gradientUnits="userSpaceOnUse" x1="84.8533" y1="641.7419" x2="486.106" y2="215.2675">
				<stop  offset="0" style="stop-color:#26C9C4"/>
				<stop  offset="1" style="stop-color:#0E490C"/>
			</linearGradient>
			
				<rect x="332.4" y="362.5" style="fill:url(#SVGID_00000117665270537096448500000009179099586381757841_);" width="15.7" height="15.5"/>
		</g>
		<g>
			
				<linearGradient id="SVGID_00000101104916785014051370000014103369120516829847_" gradientUnits="userSpaceOnUse" x1="95.4518" y1="651.7136" x2="496.7046" y2="225.2393">
				<stop  offset="0" style="stop-color:#26C9C4"/>
				<stop  offset="1" style="stop-color:#0E490C"/>
			</linearGradient>
			
				<rect x="308.6" y="409.1" style="fill:url(#SVGID_00000101104916785014051370000014103369120516829847_);" width="15.7" height="15.5"/>
		</g>
		<g>
			
				<linearGradient id="SVGID_00000115494847796456688210000001529069584508185742_" gradientUnits="userSpaceOnUse" x1="83.6811" y1="640.639" x2="484.9339" y2="214.1647">
				<stop  offset="0" style="stop-color:#26C9C4"/>
				<stop  offset="1" style="stop-color:#0E490C"/>
			</linearGradient>
			
				<rect x="308.6" y="385.5" style="fill:url(#SVGID_00000115494847796456688210000001529069584508185742_);" width="15.7" height="15.5"/>
		</g>
		<g>
			
				<linearGradient id="SVGID_00000170979958488779983350000014968896715895600573_" gradientUnits="userSpaceOnUse" x1="72.2189" y1="629.8547" x2="473.4717" y2="203.3804">
				<stop  offset="0" style="stop-color:#26C9C4"/>
				<stop  offset="1" style="stop-color:#0E490C"/>
			</linearGradient>
			
				<rect x="308.6" y="362.5" style="fill:url(#SVGID_00000170979958488779983350000014968896715895600573_);" width="15.7" height="15.5"/>
		</g>
		<g>
			
				<linearGradient id="SVGID_00000181048798258306848040000003173507288708320409_" gradientUnits="userSpaceOnUse" x1="83.1487" y1="640.1381" x2="484.4014" y2="213.6637">
				<stop  offset="0" style="stop-color:#26C9C4"/>
				<stop  offset="1" style="stop-color:#0E490C"/>
			</linearGradient>
			
				<rect x="285.4" y="409.1" style="fill:url(#SVGID_00000181048798258306848040000003173507288708320409_);" width="15.7" height="15.5"/>
		</g>
		<g>
			
				<linearGradient id="SVGID_00000134933874689475698080000000616156371481459082_" gradientUnits="userSpaceOnUse" x1="71.378" y1="629.0635" x2="472.6307" y2="202.5891">
				<stop  offset="0" style="stop-color:#26C9C4"/>
				<stop  offset="1" style="stop-color:#0E490C"/>
			</linearGradient>
			
				<rect x="285.4" y="385.5" style="fill:url(#SVGID_00000134933874689475698080000000616156371481459082_);" width="15.7" height="15.5"/>
		</g>
		<g>
			
				<linearGradient id="SVGID_00000166659750105906962330000006477681186919650731_" gradientUnits="userSpaceOnUse" x1="59.9158" y1="618.2792" x2="461.1685" y2="191.8048">
				<stop  offset="0" style="stop-color:#26C9C4"/>
				<stop  offset="1" style="stop-color:#0E490C"/>
			</linearGradient>
			
				<rect x="285.4" y="362.5" style="fill:url(#SVGID_00000166659750105906962330000006477681186919650731_);" width="15.7" height="15.5"/>
		</g>
		<g>
			
				<linearGradient id="SVGID_00000069394029487821002280000010174374026903706294_" gradientUnits="userSpaceOnUse" x1="52.0586" y1="610.8867" x2="453.3113" y2="184.4123">
				<stop  offset="0" style="stop-color:#26C9C4"/>
				<stop  offset="1" style="stop-color:#0E490C"/>
			</linearGradient>
			
				<rect x="191.4" y="409.1" style="fill:url(#SVGID_00000069394029487821002280000010174374026903706294_);" width="86.5" height="15.5"/>
		</g>
		<g>
			
				<linearGradient id="SVGID_00000054970888341774211860000012907568037204541079_" gradientUnits="userSpaceOnUse" x1="58.7419" y1="617.1747" x2="459.9947" y2="190.7004">
				<stop  offset="0" style="stop-color:#26C9C4"/>
				<stop  offset="1" style="stop-color:#0E490C"/>
			</linearGradient>
			
				<rect x="261.6" y="385.5" style="fill:url(#SVGID_00000054970888341774211860000012907568037204541079_);" width="15.7" height="15.5"/>
		</g>
		<g>
			
				<linearGradient id="SVGID_00000031203482455076462710000001702235662064064132_" gradientUnits="userSpaceOnUse" x1="47.2798" y1="606.3904" x2="448.5325" y2="179.9161">
				<stop  offset="0" style="stop-color:#26C9C4"/>
				<stop  offset="1" style="stop-color:#0E490C"/>
			</linearGradient>
			
				<rect x="261.6" y="362.5" style="fill:url(#SVGID_00000031203482455076462710000001702235662064064132_);" width="15.7" height="15.5"/>
		</g>
		<g>
			
				<linearGradient id="SVGID_00000007414832030651313340000014842703589039753109_" gradientUnits="userSpaceOnUse" x1="46.4386" y1="605.5991" x2="447.6914" y2="179.1247">
				<stop  offset="0" style="stop-color:#26C9C4"/>
				<stop  offset="1" style="stop-color:#0E490C"/>
			</linearGradient>
			
				<rect x="238.4" y="385.5" style="fill:url(#SVGID_00000007414832030651313340000014842703589039753109_);" width="15.7" height="15.5"/>
		</g>
		<g>
			
				<linearGradient id="SVGID_00000089536331820768854600000015667354637993813133_" gradientUnits="userSpaceOnUse" x1="34.9765" y1="594.8148" x2="436.2292" y2="168.3404">
				<stop  offset="0" style="stop-color:#26C9C4"/>
				<stop  offset="1" style="stop-color:#0E490C"/>
			</linearGradient>
			
				<rect x="238.4" y="362.5" style="fill:url(#SVGID_00000089536331820768854600000015667354637993813133_);" width="15.7" height="15.5"/>
		</g>
		<g>
			
				<linearGradient id="SVGID_00000044884328435878334700000010928783277608201907_" gradientUnits="userSpaceOnUse" x1="33.8028" y1="593.7105" x2="435.0555" y2="167.2361">
				<stop  offset="0" style="stop-color:#26C9C4"/>
				<stop  offset="1" style="stop-color:#0E490C"/>
			</linearGradient>
			
				<rect x="214.6" y="385.5" style="fill:url(#SVGID_00000044884328435878334700000010928783277608201907_);" width="15.7" height="15.5"/>
		</g>
		<g>
			
				<linearGradient id="SVGID_00000065034183852877098910000002685565206604814483_" gradientUnits="userSpaceOnUse" x1="22.3406" y1="582.9262" x2="423.5934" y2="156.4518">
				<stop  offset="0" style="stop-color:#26C9C4"/>
				<stop  offset="1" style="stop-color:#0E490C"/>
			</linearGradient>
			
				<rect x="214.6" y="362.5" style="fill:url(#SVGID_00000065034183852877098910000002685565206604814483_);" width="15.7" height="15.5"/>
		</g>
		<g>
			
				<linearGradient id="SVGID_00000060708818521827420290000015458482889212393369_" gradientUnits="userSpaceOnUse" x1="21.5009" y1="582.1362" x2="422.7537" y2="155.6618">
				<stop  offset="0" style="stop-color:#26C9C4"/>
				<stop  offset="1" style="stop-color:#0E490C"/>
			</linearGradient>
			
				<rect x="191.4" y="385.5" style="fill:url(#SVGID_00000060708818521827420290000015458482889212393369_);" width="15.7" height="15.5"/>
		</g>
		<g>
			
				<linearGradient id="SVGID_00000109031666136919186730000004160418794056255662_" gradientUnits="userSpaceOnUse" x1="10.0388" y1="571.3519" x2="411.2915" y2="144.8775">
				<stop  offset="0" style="stop-color:#26C9C4"/>
				<stop  offset="1" style="stop-color:#0E490C"/>
			</linearGradient>
			
				<rect x="191.4" y="362.5" style="fill:url(#SVGID_00000109031666136919186730000004160418794056255662_);" width="15.7" height="15.5"/>
		</g>
		<g>
			
				<linearGradient id="SVGID_00000069357800035246508820000018364009397132756670_" gradientUnits="userSpaceOnUse" x1="20.6358" y1="581.3222" x2="421.8886" y2="154.8478">
				<stop  offset="0" style="stop-color:#26C9C4"/>
				<stop  offset="1" style="stop-color:#0E490C"/>
			</linearGradient>
			
				<rect x="167.6" y="409.1" style="fill:url(#SVGID_00000069357800035246508820000018364009397132756670_);" width="15.7" height="15.5"/>
		</g>
		<g>
			
				<linearGradient id="SVGID_00000024714872512511371770000003678228324890352003_" gradientUnits="userSpaceOnUse" x1="8.8651" y1="570.2476" x2="410.1179" y2="143.7733">
				<stop  offset="0" style="stop-color:#26C9C4"/>
				<stop  offset="1" style="stop-color:#0E490C"/>
			</linearGradient>
			
				<rect x="167.6" y="385.5" style="fill:url(#SVGID_00000024714872512511371770000003678228324890352003_);" width="15.7" height="15.5"/>
		</g>
		<g>
			
				<linearGradient id="SVGID_00000118370465649337640400000016421434663535814549_" gradientUnits="userSpaceOnUse" x1="-2.5971" y1="559.4633" x2="398.6557" y2="132.9889">
				<stop  offset="0" style="stop-color:#26C9C4"/>
				<stop  offset="1" style="stop-color:#0E490C"/>
			</linearGradient>
			
				<rect x="167.6" y="362.5" style="fill:url(#SVGID_00000118370465649337640400000016421434663535814549_);" width="15.7" height="15.5"/>
		</g>
		<g>
			
				<linearGradient id="SVGID_00000144323583666317383360000003438353313007482511_" gradientUnits="userSpaceOnUse" x1="8.3325" y1="569.7465" x2="409.5853" y2="143.2722">
				<stop  offset="0" style="stop-color:#26C9C4"/>
				<stop  offset="1" style="stop-color:#0E490C"/>
			</linearGradient>
			
				<rect x="144.4" y="409.1" style="fill:url(#SVGID_00000144323583666317383360000003438353313007482511_);" width="15.7" height="15.5"/>
		</g>
		<g>
			
				<linearGradient id="SVGID_00000087370840376678509820000006603949218264657070_" gradientUnits="userSpaceOnUse" x1="-3.4382" y1="558.6719" x2="397.8146" y2="132.1976">
				<stop  offset="0" style="stop-color:#26C9C4"/>
				<stop  offset="1" style="stop-color:#0E490C"/>
			</linearGradient>
			
				<rect x="144.4" y="385.5" style="fill:url(#SVGID_00000087370840376678509820000006603949218264657070_);" width="15.7" height="15.5"/>
		</g>
		<g>
			
				<linearGradient id="SVGID_00000012443876504033659890000008342980977736142217_" gradientUnits="userSpaceOnUse" x1="-14.9004" y1="547.8876" x2="386.3524" y2="121.4133">
				<stop  offset="0" style="stop-color:#26C9C4"/>
				<stop  offset="1" style="stop-color:#0E490C"/>
			</linearGradient>
			
				<rect x="144.4" y="362.5" style="fill:url(#SVGID_00000012443876504033659890000008342980977736142217_);" width="15.7" height="15.5"/>
		</g>
		<g>
			
				<linearGradient id="SVGID_00000157990893443231878250000015594780889722390959_" gradientUnits="userSpaceOnUse" x1="-4.3035" y1="557.8578" x2="396.9492" y2="131.3834">
				<stop  offset="0" style="stop-color:#26C9C4"/>
				<stop  offset="1" style="stop-color:#0E490C"/>
			</linearGradient>
			
				<rect x="120.5" y="409.1" style="fill:url(#SVGID_00000157990893443231878250000015594780889722390959_);" width="15.7" height="15.5"/>
		</g>
		<g>
			
				<linearGradient id="SVGID_00000070078966638618981510000008923030119017336484_" gradientUnits="userSpaceOnUse" x1="-16.0742" y1="546.7832" x2="385.1786" y2="120.3088">
				<stop  offset="0" style="stop-color:#26C9C4"/>
				<stop  offset="1" style="stop-color:#0E490C"/>
			</linearGradient>
			
				<rect x="120.5" y="385.5" style="fill:url(#SVGID_00000070078966638618981510000008923030119017336484_);" width="15.7" height="15.5"/>
		</g>
		<g>
			
				<linearGradient id="SVGID_00000019665853058406794490000001672267661398172295_" gradientUnits="userSpaceOnUse" x1="-27.5364" y1="535.9989" x2="373.7164" y2="109.5245">
				<stop  offset="0" style="stop-color:#26C9C4"/>
				<stop  offset="1" style="stop-color:#0E490C"/>
			</linearGradient>
			
				<rect x="120.5" y="362.5" style="fill:url(#SVGID_00000019665853058406794490000001672267661398172295_);" width="15.7" height="15.5"/>
		</g>
		<g>
			
				<linearGradient id="SVGID_00000169519810916277838410000005614658470315292321_" gradientUnits="userSpaceOnUse" x1="50.4065" y1="609.3323" x2="451.6593" y2="182.8579">
				<stop  offset="0" style="stop-color:#26C9C4"/>
				<stop  offset="1" style="stop-color:#0E490C"/>
			</linearGradient>
			<path style="fill:url(#SVGID_00000169519810916277838410000005614658470315292321_);" d="M402.6,447.6L402.6,447.6H89.2
				c-2.5,0-4.4-1.2-6.3-2.5c-1.2-1.9-1.9-4.3-1.9-6.2l15.7-93.1c0.6-3.7,3.8-6.2,7.5-6.2h282.1c3.8,0,6.9,2.5,7.5,6.2l15.7,92.5
				c0,0.6,0,1.2,0,1.9C410.8,443.8,407,447.6,402.6,447.6z M98.6,432h294.6l-13.2-77.6H111.8L98.6,432z"/>
		</g>
		<g>
			
				<linearGradient id="SVGID_00000008842733641143578500000016463697269652899241_" gradientUnits="userSpaceOnUse" x1="-3.3325" y1="558.7714" x2="397.9203" y2="132.297">
				<stop  offset="0" style="stop-color:#26C9C4"/>
				<stop  offset="1" style="stop-color:#0E490C"/>
			</linearGradient>
			<path style="fill:url(#SVGID_00000008842733641143578500000016463697269652899241_);" d="M395.1,354.5H387
				c-4.4,0-8.2-3.7-8.2-8.1c0-4.3,3.8-8.1,8.2-8.1h8.1c4.4,0,8.2-1.9,11.3-4.3c3.1-3.1,4.4-6.8,4.4-11.2c0-8.7-6.9-15.5-15.7-15.5
				H97.4c-6.3,0-11.9-2.5-16.9-6.8c-4.4-4.3-6.9-10.5-6.9-16.8c0-13,10.7-23.6,23.8-23.6h85.9c1.9,0,3.8-0.6,5.6-2.5
				c1.3-1.2,2.5-3.1,2.5-5.6c0-4.3-3.8-8.1-8.2-8.1h-55.2c-6.3,0-11.9-2.5-16.9-6.8c-4.4-4.3-6.9-10.6-6.9-16.8
				c0-13,10.7-23.6,23.8-23.6h102.2c4.4,0,8.2,3.7,8.2,8.1c0,4.3-3.8,8.1-8.2,8.1H128.7c-4.4,0-8.2,3.7-8.2,8.1
				c0,1.9,0.6,3.7,2.5,5.6c1.3,1.2,3.1,2.5,5.6,2.5h54.5c13.2,0,23.8,10.6,23.8,23.6c0,6.2-2.5,11.8-6.9,16.8
				c-4.4,4.3-10.7,6.8-16.9,6.8H97.4c-4.4,0-8.1,3.7-8.1,8.1c0,1.9,0.6,3.7,2.5,5.6c1.9,1.9,3.1,2.5,5.6,2.5h297.8
				c17.6,0,31.3,13.7,31.3,31c0,8.1-3.1,16.1-9.4,21.7C410.8,350.7,403.3,354.5,395.1,354.5z"/>
		</g>
	</g>
	<g>
		<g>
			<polygon class="st1" points="219.7,113.6 250,88.8 236.9,72.7 206.5,97.5 			"/>
		</g>
		<g>
			<path class="st1" d="M206.5,97.5l-7.1-8.7c-6.9-8.4-5.6-20.8,2.8-27.6c8.4-6.9,20.7-5.6,27.6,2.8l7.2,8.8L206.5,97.5z"/>
		</g>
		<g>
			<polygon class="st1" points="354.1,216 323.7,240.8 368.6,264.8 			"/>
		</g>
		<g>
			<polygon class="st0" points="361.4,240.7 368.6,264.8 346.4,253 			"/>
		</g>
		<g>
			
				<linearGradient id="SVGID_00000147909792058296929690000012733561063250729399_" gradientUnits="userSpaceOnUse" x1="-47.5475" y1="517.1713" x2="353.7053" y2="90.6969">
				<stop  offset="0" style="stop-color:#26C9C4"/>
				<stop  offset="1" style="stop-color:#0E490C"/>
			</linearGradient>
			<path style="fill:url(#SVGID_00000147909792058296929690000012733561063250729399_);" d="M322.7,243.2
				C322.7,243.2,322.7,243.2,322.7,243.2l45.9,24.3c1.9,1,4-0.8,3.4-2.8l-0.5-1.6l-8.3-27.5l0,0l-6.2-20.6c0,0,0,0,0,0c0,0,0,0,0,0
				c0-0.1-0.1-0.3-0.2-0.4c0-0.1-0.1-0.1-0.1-0.2c-0.1-0.1-0.1-0.2-0.2-0.4c0,0,0,0,0,0L252,87.1c0,0,0,0,0,0l-11.4-13.9l0,0
				l-2.1-2.5l-1.5-1.8l0,0l-5.4-6.6c-7.9-9.5-22-10.9-31.6-3.1c-9.5,7.9-10.9,22-3.1,31.6l5.4,6.6l0,0l1.8,2.2l1.7,2.1l0,0
				l11.4,13.9c0,0,0,0,0,0l104.5,126.9c0,0,0,0,0,0c0.1,0.1,0.2,0.2,0.3,0.3c0,0,0.1,0.1,0.1,0.1C322.4,243,322.5,243.1,322.7,243.2
				C322.6,243.2,322.6,243.2,322.7,243.2z M203.6,63.6c7.2-5.9,17.8-4.9,23.7,2.3l5.4,6.6l-26,21.4l-5.4-6.6
				C195.4,80.1,196.4,69.5,203.6,63.6z M324.3,236.8L223.4,114.2l3.9-3.2l6.9-5.7l100.9,122.6l-4.6,3.8L324.3,236.8z M339.5,224.3
				L238.6,101.7l10.8-8.9l100.9,122.6L339.5,224.3z M359.3,256.2l-7.5-4l8.5-7l2.5,8.1C363.3,255.5,361.2,257.2,359.3,256.2z
				 M346.4,249.4l-17.4-9.2l11.9-9.8c0,0,0,0,0,0c0,0,0,0,0,0l11.9-9.8l5.7,18.9L346.4,249.4z M236.2,76.8l9.6,11.7l-26,21.4
				l-9.7-11.7L236.2,76.8z"/>
			
				<linearGradient id="SVGID_00000135650428184305410380000008413669776375966091_" gradientUnits="userSpaceOnUse" x1="-47.5476" y1="517.1712" x2="353.7052" y2="90.6968">
				<stop  offset="0" style="stop-color:#26C9C4"/>
				<stop  offset="1" style="stop-color:#0E490C"/>
			</linearGradient>
			<path style="fill:url(#SVGID_00000135650428184305410380000008413669776375966091_);" d="M369.7,269.4c-0.7,0-1.3-0.2-1.9-0.5
				l-45.9-24.3c0,0-0.1,0-0.1-0.1c0,0-0.1,0-0.1-0.1c-0.1-0.1-0.3-0.2-0.4-0.3l-0.2-0.2c-0.2-0.1-0.3-0.3-0.4-0.4
				c0,0-0.1-0.1-0.1-0.2L216,116.7c0,0,0,0,0,0l-11.4-13.8c0,0,0,0-0.1-0.1l-3.6-4.3c0,0,0,0-0.1-0.1l-5.3-6.5
				c-8.5-10.3-7-25.5,3.3-34c10.3-8.5,25.5-7,34,3.3l5.3,6.5c0,0,0.1,0.1,0.1,0.1l3.6,4.3c0,0,0.1,0.1,0.1,0.1L253.2,86c0,0,0,0,0,0
				l104.5,126.9c0,0,0.1,0.1,0.1,0.1c0.1,0.1,0.2,0.3,0.3,0.5c0,0.1,0.1,0.2,0.1,0.3c0.1,0.2,0.2,0.4,0.2,0.6c0,0,0,0,0,0l0,0
				c0,0,0,0,0,0.1l6.2,20.5c0,0,0,0.1,0,0.1l8.8,29.1c0.5,1.6,0,3.3-1.3,4.3C371.5,269.1,370.6,269.4,369.7,269.4z M323.5,241.7
				l45.8,24.2c0.4,0.2,0.6,0,0.8-0.1c0.1-0.1,0.3-0.3,0.2-0.7l-8.7-28.9c0,0,0-0.1,0-0.1l-6.2-20.6c0,0,0-0.1,0-0.1l0,0
				c0,0,0,0,0-0.1c-0.1-0.1-0.1-0.2-0.1-0.2c0,0,0-0.1-0.1-0.1L250.7,88.2c0,0,0,0,0,0l-11.4-13.9c0,0-0.1-0.1-0.1-0.1l-3.4-4.1
				c0,0-0.1-0.1-0.1-0.1l-5.4-6.6c-7.3-8.8-20.4-10.1-29.2-2.8c-8.8,7.3-10.1,20.4-2.8,29.2l5.4,6.6c0,0,0,0,0.1,0.1l3.5,4.2
				c0,0,0,0,0.1,0.1l11.4,13.9c0,0,0,0,0,0l104.4,126.8c0,0,0,0.1,0.1,0.1c0,0,0.1,0.1,0.1,0.1C323.3,241.6,323.4,241.7,323.5,241.7
				C323.4,241.7,323.5,241.7,323.5,241.7z M360.4,258.2c-0.7,0-1.3-0.2-1.9-0.5l0,0l-7.5-4c-0.5-0.3-0.8-0.8-0.9-1.3
				c-0.1-0.6,0.2-1.1,0.6-1.5l8.5-7c0.4-0.4,1-0.5,1.6-0.3c0.5,0.2,1,0.6,1.1,1.1l2.5,8.1c0.5,1.6,0,3.3-1.3,4.3
				C362.2,257.9,361.3,258.2,360.4,258.2z M360.1,254.7c0.3,0.2,0.6,0,0.8-0.1c0.1-0.1,0.3-0.3,0.2-0.7l-1.7-5.7l-4.5,3.7
				L360.1,254.7z M346.4,251.1c-0.3,0-0.5-0.1-0.8-0.2l-17.4-9.2c-0.5-0.3-0.8-0.8-0.9-1.3s0.2-1.1,0.6-1.5l11.9-9.8c0,0,0,0,0,0
				c0,0,0,0,0,0l11.9-9.8c0.4-0.4,1-0.5,1.6-0.3c0.5,0.2,1,0.6,1.1,1.1l5.7,18.9c0.2,0.7,0,1.4-0.5,1.8l-12.1,9.9
				C347.2,251,346.8,251.1,346.4,251.1z M332,239.9l14.2,7.5l10.3-8.5l-4.6-15.3l-9.9,8.1c0,0-0.1,0-0.1,0.1c0,0,0,0,0,0L332,239.9z
				 M324.3,238.5c-0.1,0-0.1,0-0.2,0c-0.4,0-0.9-0.3-1.1-0.6L222.1,115.3c-0.6-0.7-0.5-1.8,0.2-2.4l10.8-8.9
				c0.3-0.3,0.8-0.4,1.2-0.4c0.4,0,0.9,0.3,1.1,0.6l100.9,122.6c0.6,0.7,0.5,1.8-0.2,2.4l-10.8,8.9
				C325.1,238.3,324.7,238.5,324.3,238.5z M225.8,114.4l98.7,119.9l8.2-6.7L234,107.7L225.8,114.4z M339.5,226c-0.5,0-1-0.2-1.3-0.6
				L237.3,102.8c-0.6-0.7-0.5-1.8,0.2-2.4l10.8-8.9c0.3-0.3,0.8-0.4,1.2-0.4c0.4,0,0.9,0.3,1.1,0.6l100.9,122.6
				c0.6,0.7,0.5,1.8-0.2,2.4l-10.8,8.9C340.3,225.9,339.9,226,339.5,226z M241,102l98.7,119.9l8.2-6.7L249.2,95.2L241,102z
				 M219.9,111.6c-0.5,0-1-0.2-1.3-0.6l-9.7-11.7c-0.3-0.3-0.4-0.8-0.4-1.2c0-0.4,0.3-0.9,0.6-1.1l26-21.4c0.3-0.3,0.8-0.4,1.2-0.4
				c0.4,0,0.9,0.3,1.1,0.6l9.6,11.7c0.6,0.7,0.5,1.8-0.2,2.4l-26,21.4C220.6,111.4,220.3,111.6,219.9,111.6z M212.6,98.4l7.5,9.1
				l23.3-19.2l-7.5-9.1L212.6,98.4z M206.7,95.5c-0.1,0-0.1,0-0.2,0c-0.4,0-0.9-0.3-1.1-0.6l-5.4-6.6c-6.5-7.9-5.4-19.6,2.5-26.1
				c0,0,0,0,0,0c7.9-6.5,19.6-5.3,26.1,2.5l5.4,6.6c0.3,0.3,0.4,0.8,0.4,1.2c0,0.4-0.3,0.9-0.6,1.1l-26,21.4
				C207.4,95.4,207,95.5,206.7,95.5z M204.6,64.9c-6.4,5.3-7.4,14.9-2.1,21.3l4.3,5.2l23.4-19.2l-4.3-5.3
				C220.6,60.5,211.1,59.6,204.6,64.9L204.6,64.9z"/>
		</g>
	</g>
	<g>
		<g>
			
				<linearGradient id="SVGID_00000116941430078818494010000012919808006730051721_" gradientUnits="userSpaceOnUse" x1="-34.8719" y1="529.0972" x2="366.3809" y2="102.6228">
				<stop  offset="0" style="stop-color:#26C9C4"/>
				<stop  offset="1" style="stop-color:#0E490C"/>
			</linearGradient>
			<polygon style="fill:url(#SVGID_00000116941430078818494010000012919808006730051721_);" points="366.9,121.9 345.9,100.9 
				355.2,91.7 366.9,103.3 418.3,54.1 426.5,62.3 			"/>
		</g>
		<g>
			<g>
				
					<linearGradient id="SVGID_00000168118876786851335480000014701859208666697353_" gradientUnits="userSpaceOnUse" x1="-33.5878" y1="530.3054" x2="367.6649" y2="103.831">
					<stop  offset="0" style="stop-color:#26C9C4"/>
					<stop  offset="1" style="stop-color:#0E490C"/>
				</linearGradient>
				<path style="fill:url(#SVGID_00000168118876786851335480000014701859208666697353_);" d="M364.3,146.2c-10.4,0-20.1-4-27.5-11.4
					c-7.3-7.3-11.4-17.1-11.4-27.5c0-10.4,4-20.1,11.4-27.5c7.3-7.3,17.1-11.4,27.5-11.4c3.7,0,6.7,3,6.7,6.7c0,3.7-3,6.7-6.7,6.7
					c-6.8,0-13.2,2.6-18,7.4c-4.8,4.8-7.4,11.2-7.4,18c0,6.8,2.6,13.2,7.4,18c4.8,4.8,11.2,7.4,18,7.4c6.8,0,13.2-2.6,18-7.4
					c4.8-4.8,7.4-11.2,7.4-18c0-3.7,3-6.7,6.7-6.7c3.7,0,6.7,3,6.7,6.7c0,10.4-4,20.1-11.4,27.5
					C384.5,142.2,374.7,146.2,364.3,146.2z"/>
			</g>
		</g>
	</g>
</g>
</svg>
