<?xml version="1.0" encoding="utf-8"?>
<!-- Generator: Adobe Illustrator 27.2.0, SVG Export Plug-In . SVG Version: 6.00 Build 0)  -->
<svg version="1.1" id="Слой_9" xmlns="http://www.w3.org/2000/svg" xmlns:xlink="http://www.w3.org/1999/xlink" x="0px" y="0px"
	 viewBox="0 0 500 500" style="enable-background:new 0 0 500 500;" xml:space="preserve">
<style type="text/css">
	.st0{fill:#FFFFFF;}
	.st1{fill:#82D8D1;}
	.st2{fill:#FCD5B7;}
	.st3{fill:#F6A667;}
	.st4{fill:#F98638;}
	.st5{fill:#EC6907;}
	.st6{fill:url(#SVGID_1_);}
	.st7{fill:url(#SVGID_00000111884932756605808210000006502910226383858075_);}
	.st8{fill:#1E81CE;}
	.st9{fill:#0B71B7;}
	.st10{fill:#0067A0;}
	.st11{fill:#005377;}
	.st12{fill:#9BC9FF;}
	.st13{fill:url(#SVGID_00000065054634572870444020000016652471846679860103_);}
	.st14{fill:url(#SVGID_00000168821784251988640570000017013462830192222655_);}
	.st15{fill:url(#SVGID_00000040537977676019824840000000719471700722076547_);}
	.st16{fill:url(#SVGID_00000101801935903072447700000017554363673245320631_);}
	.st17{fill:url(#SVGID_00000067196072766396304010000016364540722986555037_);}
	.st18{fill:url(#SVGID_00000085209555349608539930000006382096048136521632_);}
	.st19{fill:url(#SVGID_00000090287410270668174740000011310812172697676423_);}
	.st20{fill:url(#SVGID_00000079468067171591396430000012861882837823334300_);}
	.st21{fill:url(#SVGID_00000005233974445300672520000001803256356834331316_);}
	.st22{fill:url(#SVGID_00000033331753076371109160000015221562728925860488_);}
	.st23{fill:url(#SVGID_00000000945166077174937020000015899739920041358227_);}
	.st24{fill:url(#SVGID_00000031890015913509679710000004653537847394044546_);}
	.st25{fill:url(#SVGID_00000018205314705000951870000017308083275590407071_);}
	.st26{fill:url(#SVGID_00000027606124751620761490000010170086855263953026_);}
	.st27{fill:url(#SVGID_00000041994919758383977470000006512449955018574509_);}
	.st28{fill:url(#SVGID_00000056397993791000772520000006408657738712582054_);}
	.st29{fill:url(#SVGID_00000172424048427864945740000009872477737255531413_);}
	.st30{fill:url(#SVGID_00000075131822126637603220000006571145367421228171_);}
	.st31{fill:url(#SVGID_00000155145838872790847560000005531214959728556454_);}
	.st32{fill:url(#SVGID_00000103943863292687496270000003418487152791597997_);}
	.st33{fill:url(#SVGID_00000089553942892314808840000005943047674328004271_);}
	.st34{fill:url(#SVGID_00000052069170593319329510000005440195379975862927_);}
	.st35{fill:url(#SVGID_00000013151172594437074840000011705606895014501304_);}
	.st36{fill:url(#SVGID_00000073717617547434979690000006833110524098077066_);}
	.st37{fill:url(#SVGID_00000171696857311865160360000002975416354244491711_);}
	.st38{fill:url(#SVGID_00000010307803044650740460000007909950026842831763_);}
	.st39{fill:url(#SVGID_00000115485527767120785690000012893312088104811172_);}
	.st40{fill:url(#SVGID_00000062184918301861278910000006808276887078350220_);}
	.st41{fill:url(#SVGID_00000035494337944766099590000002658884014060956833_);}
	.st42{fill:url(#SVGID_00000140733815555187835120000011374774493946059690_);}
	.st43{fill:url(#SVGID_00000082356389508723129070000006992264101860196489_);}
	.st44{fill:url(#SVGID_00000038379054767253726230000012900324779212597159_);}
	.st45{fill:url(#SVGID_00000072971312276031179420000000477419966072738486_);}
	.st46{fill:url(#SVGID_00000015325621603219814550000001817289728357028997_);}
	.st47{fill:url(#SVGID_00000140711656946535380880000011786971920305383084_);}
	.st48{fill:url(#SVGID_00000074428327542591233700000011912027651995022774_);}
	.st49{fill:url(#SVGID_00000153703283288431459500000003665510752762135446_);}
	.st50{fill:url(#SVGID_00000165919998421380129440000006033361431873547962_);}
	.st51{fill:url(#SVGID_00000177444247353727724930000009452911909353931398_);}
	.st52{fill:url(#SVGID_00000162310285767007853840000013631841784737046685_);}
	.st53{fill:url(#SVGID_00000038414575622216844560000008581053141225256352_);}
	.st54{fill:url(#SVGID_00000061444174880837900050000008972799184461251258_);}
	.st55{fill-rule:evenodd;clip-rule:evenodd;fill:#82D8D1;}
	.st56{fill:url(#SVGID_00000037680096963889119970000018208184928358915987_);}
	.st57{fill:url(#SVGID_00000103960163124573665770000005901703595913837490_);}
	.st58{fill:url(#SVGID_00000109725938699770655910000017521760469777829780_);}
	.st59{fill:url(#SVGID_00000106144127856138607720000012701450918274042496_);}
	.st60{fill:url(#SVGID_00000003067238657882495080000008968469338237227705_);}
	.st61{fill:url(#SVGID_00000023273937490972178920000016526236138248259987_);}
	.st62{fill:url(#SVGID_00000086671094030301643910000000284477011377977731_);}
	.st63{fill:url(#SVGID_00000032629351502899443060000003054575631930571161_);}
	.st64{fill:url(#SVGID_00000070811538407914462970000003152666692378708871_);}
	.st65{fill:url(#SVGID_00000050627495543580033240000011441554052016833947_);}
	.st66{fill:url(#SVGID_00000036957096037254276150000006355261748937285035_);}
	.st67{fill:url(#SVGID_00000119797311443391668430000011969651234308737946_);}
	.st68{fill:url(#SVGID_00000150084024841833730330000004860801139062071438_);}
	.st69{fill:url(#SVGID_00000164485221450824039700000008243287346853430160_);}
	.st70{fill:url(#SVGID_00000172416171160682280320000008368653706202367142_);}
	.st71{fill:url(#SVGID_00000009564848718908553160000000636304190091798672_);}
	.st72{fill:url(#SVGID_00000080168858736338403850000017438372552370768776_);}
	.st73{fill:url(#SVGID_00000160870633269218622730000011622971546998101664_);}
	.st74{fill:url(#SVGID_00000093898580712504205430000002875948522696012722_);}
	.st75{fill:url(#SVGID_00000065069051787690690080000017282141046443006867_);}
	.st76{fill:url(#SVGID_00000178890149097216425320000017836038281441963183_);}
	.st77{fill:url(#SVGID_00000055666322668935738470000002635709379363948463_);}
	.st78{fill:url(#SVGID_00000146481277411363361510000004841563879103378869_);}
	.st79{fill:url(#SVGID_00000052100058993272926490000015361136792776574377_);}
	.st80{fill:url(#SVGID_00000034770281705780902020000000494269507963024551_);}
	.st81{fill:url(#SVGID_00000088122336962459780070000012687137475656345473_);}
	.st82{fill:url(#SVGID_00000115493287176260796950000004079620040591593880_);}
	.st83{fill:url(#SVGID_00000076581514109215091540000008695460792982816141_);}
	.st84{fill:url(#SVGID_00000052079519691238744940000015571426313679246509_);}
	.st85{fill:url(#SVGID_00000028304886797406342850000009113809413684754817_);}
	.st86{fill:url(#SVGID_00000147903137174407220760000007869322381187872677_);}
	.st87{fill:url(#SVGID_00000137846420473767888790000002846178078110093500_);}
	.st88{fill:url(#SVGID_00000105385811547109303330000006563039542213710742_);}
	.st89{fill:url(#SVGID_00000147917670970107583480000009989379591625014944_);}
	.st90{fill:url(#SVGID_00000086663695338372139680000009944776365788008864_);}
	.st91{fill:url(#SVGID_00000008844874753759231900000003365598930002826895_);}
	.st92{fill:url(#SVGID_00000132082720602000010570000008430910507456738975_);}
	.st93{fill:url(#SVGID_00000004520914508250835350000010416588687416145285_);}
	.st94{fill:url(#SVGID_00000136410727796388865930000015103130214090071705_);}
	.st95{fill:url(#SVGID_00000044862025989959250050000016449508594304085432_);}
	.st96{fill:url(#SVGID_00000032646625023020973870000001153695146423748225_);}
	.st97{fill:url(#SVGID_00000034803382374973568790000007760723600581647283_);}
	.st98{fill:url(#SVGID_00000015340813704126012530000015372344222860443548_);}
	.st99{fill:url(#SVGID_00000083088214540696411030000001863394287158867130_);}
	.st100{fill:url(#SVGID_00000131354847097957644840000015321652324876864674_);}
	.st101{fill:url(#SVGID_00000012447160956429500970000014555075820803618205_);}
	.st102{fill:url(#SVGID_00000023980497432426581920000017454087732837273248_);}
	.st103{fill:url(#SVGID_00000014613668913365019990000015540083671010437250_);}
	.st104{fill:url(#SVGID_00000121990484618669630420000011251579895392349073_);}
	.st105{fill:url(#SVGID_00000073693066896598147650000012579883764188920473_);}
	.st106{fill:url(#SVGID_00000016051926799280229540000004462280433612075440_);}
	.st107{fill:url(#SVGID_00000101794753416110056480000004793570602663182745_);}
	.st108{fill:url(#SVGID_00000168817780882036370360000004539301704552898704_);}
	.st109{fill:url(#SVGID_00000031188566701629020100000016439831098908152464_);}
	.st110{fill:url(#SVGID_00000118357736719760174270000005557149473000730287_);}
	.st111{fill:url(#SVGID_00000050627557684391439110000005496500429224587427_);}
	.st112{fill:url(#SVGID_00000069356124912505245810000016590806061372033706_);}
	.st113{fill:url(#SVGID_00000177469479567338493920000009712337795467738790_);}
	.st114{fill:url(#SVGID_00000049927043031804699250000012186456132993238674_);}
	.st115{fill:url(#SVGID_00000022547210247114401170000002365071867188244671_);}
	.st116{fill:url(#SVGID_00000006666317871998503920000010726714973439935898_);}
	.st117{fill:url(#SVGID_00000045585494153574619150000006659085079700085929_);}
	.st118{fill:url(#SVGID_00000176741652930102895740000000852490224033922486_);}
	.st119{fill:url(#SVGID_00000062157088853244005120000013875192583194748863_);}
	.st120{fill:url(#SVGID_00000150062706851276258620000009899421854104505512_);}
	.st121{fill:url(#SVGID_00000081638331430181055800000006237642449454850220_);}
	.st122{fill:url(#SVGID_00000075865834940815000770000012027222456312183708_);}
</style>
<g>
	<g>
		<g>
			<circle class="st55" cx="255.6" cy="166" r="105.9"/>
		</g>
		<g>
			<path class="st0" d="M415.4,305.1c-3.3-3.2-7.8-5.1-12.5-5.1c-4.8,0-9.1,1.8-12.5,5.1l-74.5,75.1c-0.1,0.1-0.2,0.3-0.3,0.5
				c-5,10.4-15.5,16.8-27,16.1l-85.2-3.9c-3.5,0-6.3-3-6.3-6.9c0-3.5,3-6.2,6.9-6.2l85.2,3.9c6.5,0,11.4-2.8,13.5-7.6
				c0.1-0.2,0.1-0.4,0.1-0.7c0-0.9,0.5-1.7,0.8-2.1c0.1-0.1,0.2-0.3,0.3-0.4c0.9-1.7,0.9-3.9,0.9-6c0-0.1,0-0.2,0-0.3
				c-0.7-3.6-2.2-6.6-4.5-8.8c-2.8-2.7-7.1-3.9-9.5-4.4c0,0-0.1,0-0.1,0l-150.9-16.5c-0.5-0.1-1,0.1-1.4,0.5L83.9,392
				c-0.3,0.3-0.5,0.8-0.5,1.2c0,0.5,0.2,0.9,0.5,1.2l54.5,54c0.3,0.3,0.8,0.5,1.2,0.5c0.4,0,0.9-0.2,1.2-0.5l15.3-15.1
				c1-1,3.3-2.1,4.7-2.1l145.6,6.6c0.5,0,0.9-0.2,1.3-0.5l107.7-107.3c3.3-3.2,5.2-7.8,5.2-12.4
				C420.6,312.7,418.8,308.4,415.4,305.1z"/>
		</g>
	</g>
	<g>
		<linearGradient id="SVGID_1_" gradientUnits="userSpaceOnUse" x1="114.3848" y1="533.478" x2="414.7512" y2="118.468">
			<stop  offset="0" style="stop-color:#26C9C4"/>
			<stop  offset="1" style="stop-color:#0E490C"/>
		</linearGradient>
		<path class="st6" d="M387.1,190.6l-3.5,6.1c-1.8,3.1-6.3,3.1-8.1,0l-6.5-11.3c-9.2,54.2-55.4,95.4-112.3,95.4v18.8
			C322.1,299.5,375.5,252.6,387.1,190.6z"/>
		
			<linearGradient id="SVGID_00000027604025519039556260000000266763945437514422_" gradientUnits="userSpaceOnUse" x1="21.2052" y1="466.0386" x2="321.5715" y2="51.0286">
			<stop  offset="0" style="stop-color:#26C9C4"/>
			<stop  offset="1" style="stop-color:#0E490C"/>
		</linearGradient>
		<path style="fill:url(#SVGID_00000027604025519039556260000000266763945437514422_);" d="M244.8,169.1c-1.4,0.8-1.9,2.6-1,4
			c1.2,2.1,3.9,2.8,6,1.6l2.9-1.7l6,3.6c2.1,1.3,4.8,0.6,6-1.5l2-3.3c1.3-2.1,0.6-4.8-1.5-6l73.3-43c0.5-0.3,0.6-0.9,0.4-1.4
			l-0.3-0.5c-0.3-0.5-0.1-1.1,0.4-1.4l8.2-4.7l0.8-0.4l-1.1-2.3l-0.9,0.6l-8.2,4.8c-0.5,0.3-1.1,0.1-1.4-0.4l-0.1-0.2
			c-0.3-0.5-0.9-0.6-1.4-0.4l-76.8,45l-58.3-34.9c-2.1-1.3-4.8-0.6-6,1.5l-2,3.3c-1.3,2.1-0.6,4.8,1.5,6l52.3,31.3L244.8,169.1z"/>
		
			<linearGradient id="SVGID_00000150801881248293783280000010294017588885193100_" gradientUnits="userSpaceOnUse" x1="-5.8655" y1="446.446" x2="294.5008" y2="31.4359">
			<stop  offset="0" style="stop-color:#26C9C4"/>
			<stop  offset="1" style="stop-color:#0E490C"/>
		</linearGradient>
		<path style="fill:url(#SVGID_00000150801881248293783280000010294017588885193100_);" d="M270,68.5c0.6,0.1,1.1-0.3,1.2-0.9
			l0.9-6.3l-2-0.3l-0.9,6.3C269,67.9,269.4,68.4,270,68.5L270,68.5z"/>
		
			<linearGradient id="SVGID_00000005973966147841273310000016730792769933990018_" gradientUnits="userSpaceOnUse" x1="71.1393" y1="502.1787" x2="371.5056" y2="87.1687">
			<stop  offset="0" style="stop-color:#26C9C4"/>
			<stop  offset="1" style="stop-color:#0E490C"/>
		</linearGradient>
		<path style="fill:url(#SVGID_00000005973966147841273310000016730792769933990018_);" d="M241.7,263.3c-0.6-0.1-1.1,0.3-1.2,0.9
			l-0.9,6.3l2,0.3l0.9-6.3C242.7,263.9,242.3,263.4,241.7,263.3L241.7,263.3z"/>
		
			<linearGradient id="SVGID_00000091006602431381304940000015817489041592702361_" gradientUnits="userSpaceOnUse" x1="13.5377" y1="460.4892" x2="313.9041" y2="45.4792">
			<stop  offset="0" style="stop-color:#26C9C4"/>
			<stop  offset="1" style="stop-color:#0E490C"/>
		</linearGradient>
		<path style="fill:url(#SVGID_00000091006602431381304940000015817489041592702361_);" d="M293.7,75.1c0.5,0.2,1.1,0,1.3-0.6
			l2.4-5.9l-1.9-0.8l-2.4,5.9C292.9,74.2,293.1,74.8,293.7,75.1L293.7,75.1z"/>
		
			<linearGradient id="SVGID_00000042016090952198357180000017332154073000326799_" gradientUnits="userSpaceOnUse" x1="51.7668" y1="488.1577" x2="352.1331" y2="73.1477">
			<stop  offset="0" style="stop-color:#26C9C4"/>
			<stop  offset="1" style="stop-color:#0E490C"/>
		</linearGradient>
		<path style="fill:url(#SVGID_00000042016090952198357180000017332154073000326799_);" d="M218.2,256.6L218.2,256.6
			c-0.5-0.2-1.1,0-1.3,0.5l-2.4,5.9l1.9,0.8l2.4-5.9C219,257.4,218.7,256.8,218.2,256.6z"/>
		
			<linearGradient id="SVGID_00000003092854291845390190000016715425707423474821_" gradientUnits="userSpaceOnUse" x1="35.8833" y1="476.662" x2="336.2497" y2="61.652">
			<stop  offset="0" style="stop-color:#26C9C4"/>
			<stop  offset="1" style="stop-color:#0E490C"/>
		</linearGradient>
		<path style="fill:url(#SVGID_00000003092854291845390190000016715425707423474821_);" d="M318,88.3l3.9-5l-1.6-1.3l-3.9,5
			c-0.3,0.4-0.3,1.1,0.2,1.4l0,0C317.1,88.9,317.7,88.8,318,88.3z"/>
		
			<linearGradient id="SVGID_00000044884853955089443180000014265324048811239334_" gradientUnits="userSpaceOnUse" x1="29.4421" y1="472.0001" x2="329.8085" y2="56.9901">
			<stop  offset="0" style="stop-color:#26C9C4"/>
			<stop  offset="1" style="stop-color:#0E490C"/>
		</linearGradient>
		<path style="fill:url(#SVGID_00000044884853955089443180000014265324048811239334_);" d="M195.4,243L195.4,243
			c-0.4-0.3-1.1-0.3-1.4,0.2l-3.9,5l1.6,1.3l3.9-5C195.9,244,195.8,243.4,195.4,243z"/>
		
			<linearGradient id="SVGID_00000125598996369635578320000002126835646851713722_" gradientUnits="userSpaceOnUse" x1="56.957" y1="491.9142" x2="357.3234" y2="76.9042">
			<stop  offset="0" style="stop-color:#26C9C4"/>
			<stop  offset="1" style="stop-color:#0E490C"/>
		</linearGradient>
		<path style="fill:url(#SVGID_00000125598996369635578320000002126835646851713722_);" d="M335.8,106.8l5.1-3.8l-1.2-1.6l-5.1,3.8
			c-0.4,0.3-0.5,1-0.2,1.4l0,0C334.7,107,335.3,107.1,335.8,106.8z"/>
		
			<linearGradient id="SVGID_00000031200524636853682680000009268553740958186151_" gradientUnits="userSpaceOnUse" x1="8.3675" y1="456.7473" x2="308.7339" y2="41.7372">
			<stop  offset="0" style="stop-color:#26C9C4"/>
			<stop  offset="1" style="stop-color:#0E490C"/>
		</linearGradient>
		<path style="fill:url(#SVGID_00000031200524636853682680000009268553740958186151_);" d="M177.4,226.4c0.4-0.3,0.5-1,0.2-1.4l0,0
			c-0.3-0.5-1-0.5-1.4-0.2l-5.1,3.8l1.2,1.6L177.4,226.4z"/>
		
			<linearGradient id="SVGID_00000167396178933966591080000001573517767770669185_" gradientUnits="userSpaceOnUse" x1="76.4764" y1="506.0415" x2="376.8428" y2="91.0315">
			<stop  offset="0" style="stop-color:#26C9C4"/>
			<stop  offset="1" style="stop-color:#0E490C"/>
		</linearGradient>
		<path style="fill:url(#SVGID_00000167396178933966591080000001573517767770669185_);" d="M347.5,127.4c-0.5,0.2-0.8,0.8-0.6,1.3
			l0,0c0.2,0.5,0.8,0.8,1.3,0.6l5.9-2.4l-0.8-1.9L347.5,127.4z"/>
		
			<linearGradient id="SVGID_00000081646660859252136860000004919651926063623344_" gradientUnits="userSpaceOnUse" x1="-11.1711" y1="442.606" x2="289.1953" y2="27.596">
			<stop  offset="0" style="stop-color:#26C9C4"/>
			<stop  offset="1" style="stop-color:#0E490C"/>
		</linearGradient>
		<path style="fill:url(#SVGID_00000081646660859252136860000004919651926063623344_);" d="M164.4,204.3c0.5-0.2,0.8-0.8,0.6-1.3
			l0,0c-0.2-0.5-0.8-0.8-1.3-0.6l-5.9,2.4l0.8,1.9L164.4,204.3z"/>
		
			<linearGradient id="SVGID_00000014612372523108440730000014812947098936824505_" gradientUnits="userSpaceOnUse" x1="92.0909" y1="517.3426" x2="392.4573" y2="102.3326">
			<stop  offset="0" style="stop-color:#26C9C4"/>
			<stop  offset="1" style="stop-color:#0E490C"/>
		</linearGradient>
		<path style="fill:url(#SVGID_00000014612372523108440730000014812947098936824505_);" d="M353.2,151.7L353.2,151.7
			c0.1,0.6,0.6,0.9,1.2,0.9l6.3-0.9l-0.3-2l-6.3,0.9C353.5,150.6,353.1,151.1,353.2,151.7z"/>
		
			<linearGradient id="SVGID_00000136380555623213523500000016550975628560173704_" gradientUnits="userSpaceOnUse" x1="-26.8172" y1="431.2821" x2="273.5492" y2="16.2721">
			<stop  offset="0" style="stop-color:#26C9C4"/>
			<stop  offset="1" style="stop-color:#0E490C"/>
		</linearGradient>
		<path style="fill:url(#SVGID_00000136380555623213523500000016550975628560173704_);" d="M158.5,180.1L158.5,180.1
			c-0.1-0.6-0.6-0.9-1.2-0.9l-6.3,0.9l0.3,2l6.3-0.9C158.2,181.2,158.6,180.7,158.5,180.1z"/>
		
			<linearGradient id="SVGID_00000167385873115753212030000016269906175840304793_" gradientUnits="userSpaceOnUse" x1="105.955" y1="527.3769" x2="406.3214" y2="112.3669">
			<stop  offset="0" style="stop-color:#26C9C4"/>
			<stop  offset="1" style="stop-color:#0E490C"/>
		</linearGradient>
		<path style="fill:url(#SVGID_00000167385873115753212030000016269906175840304793_);" d="M360.5,181.8l0.3-2l-6.3-0.9
			c-0.6-0.1-1.1,0.3-1.2,0.9l0,0c-0.1,0.6,0.3,1.1,0.9,1.2L360.5,181.8z"/>
		
			<linearGradient id="SVGID_00000008840051850561358170000017283657427857546126_" gradientUnits="userSpaceOnUse" x1="-40.5542" y1="421.3398" x2="259.8122" y2="6.3298">
			<stop  offset="0" style="stop-color:#26C9C4"/>
			<stop  offset="1" style="stop-color:#0E490C"/>
		</linearGradient>
		<path style="fill:url(#SVGID_00000008840051850561358170000017283657427857546126_);" d="M150.9,152.3l6.3,0.9
			c0.6,0.1,1.1-0.3,1.2-0.9l0,0c0.1-0.6-0.3-1.1-0.9-1.2l-6.3-0.9L150.9,152.3z"/>
		
			<linearGradient id="SVGID_00000143576673884127891320000015690167059699161788_" gradientUnits="userSpaceOnUse" x1="113.1642" y1="532.5945" x2="413.5305" y2="117.5845">
			<stop  offset="0" style="stop-color:#26C9C4"/>
			<stop  offset="1" style="stop-color:#0E490C"/>
		</linearGradient>
		<path style="fill:url(#SVGID_00000143576673884127891320000015690167059699161788_);" d="M346.9,203.4L346.9,203.4
			c-0.2,0.5,0,1.1,0.6,1.3l5.9,2.4l0.8-1.9l-5.9-2.4C347.7,202.6,347.1,202.8,346.9,203.4z"/>
		
			<linearGradient id="SVGID_00000155104517123263400210000015457332555669185720_" gradientUnits="userSpaceOnUse" x1="-47.5637" y1="416.2666" x2="252.8027" y2="1.2566">
			<stop  offset="0" style="stop-color:#26C9C4"/>
			<stop  offset="1" style="stop-color:#0E490C"/>
		</linearGradient>
		<path style="fill:url(#SVGID_00000155104517123263400210000015457332555669185720_);" d="M157.8,127l5.9,2.4
			c0.5,0.2,1.1,0,1.3-0.6l0,0c0.2-0.5,0-1.1-0.6-1.3l-5.9-2.4L157.8,127z"/>
		
			<linearGradient id="SVGID_00000134929435866190402470000002058078416379541656_" gradientUnits="userSpaceOnUse" x1="115.382" y1="534.1997" x2="415.7484" y2="119.1897">
			<stop  offset="0" style="stop-color:#26C9C4"/>
			<stop  offset="1" style="stop-color:#0E490C"/>
		</linearGradient>
		<path style="fill:url(#SVGID_00000134929435866190402470000002058078416379541656_);" d="M334.1,225.6L334.1,225.6
			c-0.3,0.5-0.3,1.1,0.2,1.4l5.1,3.9l1.2-1.6l-5.1-3.9C335.1,225.1,334.5,225.2,334.1,225.6z"/>
		
			<linearGradient id="SVGID_00000080892088580609828840000005987079055690079131_" gradientUnits="userSpaceOnUse" x1="-49.667" y1="414.7443" x2="250.6993" y2="-0.2657">
			<stop  offset="0" style="stop-color:#26C9C4"/>
			<stop  offset="1" style="stop-color:#0E490C"/>
		</linearGradient>
		<path style="fill:url(#SVGID_00000080892088580609828840000005987079055690079131_);" d="M177.8,106.7c0.3-0.4,0.3-1.1-0.2-1.4
			l-5.1-3.9l-1.2,1.6l5.1,3.9C176.8,107.3,177.5,107.2,177.8,106.7L177.8,106.7z"/>
		
			<linearGradient id="SVGID_00000142135030694069537030000015800883100789582004_" gradientUnits="userSpaceOnUse" x1="103.8501" y1="525.8534" x2="404.2165" y2="110.8434">
			<stop  offset="0" style="stop-color:#26C9C4"/>
			<stop  offset="1" style="stop-color:#0E490C"/>
		</linearGradient>
		<path style="fill:url(#SVGID_00000142135030694069537030000015800883100789582004_);" d="M294.7,256.4L294.7,256.4
			c-0.5,0.2-0.8,0.8-0.5,1.3l2.5,5.8l1.9-0.8L296,257C295.8,256.5,295.2,256.2,294.7,256.4z"/>
		
			<linearGradient id="SVGID_00000159433254903309048380000014497238082329472942_" gradientUnits="userSpaceOnUse" x1="-38.2376" y1="423.0164" x2="262.1288" y2="8.0064">
			<stop  offset="0" style="stop-color:#26C9C4"/>
			<stop  offset="1" style="stop-color:#0E490C"/>
		</linearGradient>
		<path style="fill:url(#SVGID_00000159433254903309048380000014497238082329472942_);" d="M217.2,75.8c0.5-0.2,0.8-0.8,0.5-1.3
			l-2.5-5.8l-1.9,0.8l2.5,5.8C216.1,75.8,216.7,76,217.2,75.8z"/>
		
			<linearGradient id="SVGID_00000093149079735072515610000001273382008277640336_" gradientUnits="userSpaceOnUse" x1="112.0653" y1="531.7993" x2="412.4317" y2="116.7892">
			<stop  offset="0" style="stop-color:#26C9C4"/>
			<stop  offset="1" style="stop-color:#0E490C"/>
		</linearGradient>
		<path style="fill:url(#SVGID_00000093149079735072515610000001273382008277640336_);" d="M315.8,244.1L315.8,244.1
			c-0.4,0.3-0.5,1-0.2,1.4l3.9,5l1.6-1.2l-3.9-5C316.9,243.8,316.3,243.7,315.8,244.1z"/>
		
			<linearGradient id="SVGID_00000159470196975661638550000013869185836635222447_" gradientUnits="userSpaceOnUse" x1="-46.3524" y1="417.1433" x2="254.014" y2="2.1333">
			<stop  offset="0" style="stop-color:#26C9C4"/>
			<stop  offset="1" style="stop-color:#0E490C"/>
		</linearGradient>
		<path style="fill:url(#SVGID_00000159470196975661638550000013869185836635222447_);" d="M196.2,88.3L196.2,88.3
			c0.4-0.3,0.5-1,0.2-1.4l-3.9-5l-1.6,1.2l3.9,5C195.1,88.6,195.7,88.6,196.2,88.3z"/>
		
			<linearGradient id="SVGID_00000068652364490430211560000000502323685320584329_" gradientUnits="userSpaceOnUse" x1="90.3217" y1="516.0621" x2="390.6881" y2="101.0521">
			<stop  offset="0" style="stop-color:#26C9C4"/>
			<stop  offset="1" style="stop-color:#0E490C"/>
		</linearGradient>
		<path style="fill:url(#SVGID_00000068652364490430211560000000502323685320584329_);" d="M269.7,263.5L269.7,263.5
			c-0.6,0.1-0.9,0.6-0.9,1.2l0.9,6.3l2-0.3l-0.9-6.3C270.8,263.8,270.3,263.4,269.7,263.5z"/>
		
			<linearGradient id="SVGID_00000173855607390075636070000017546539226220108678_" gradientUnits="userSpaceOnUse" x1="-24.9179" y1="432.6567" x2="275.4485" y2="17.6467">
			<stop  offset="0" style="stop-color:#26C9C4"/>
			<stop  offset="1" style="stop-color:#0E490C"/>
		</linearGradient>
		<path style="fill:url(#SVGID_00000173855607390075636070000017546539226220108678_);" d="M242,68.6L242,68.6
			c0.6-0.1,0.9-0.6,0.9-1.2l-0.9-6.3l-2,0.3l0.9,6.3C240.9,68.3,241.4,68.7,242,68.6z"/>
		
			<linearGradient id="SVGID_00000106149278071346595830000014568695568386038691_" gradientUnits="userSpaceOnUse" x1="-44.5638" y1="418.4378" x2="255.8026" y2="3.4278">
			<stop  offset="0" style="stop-color:#26C9C4"/>
			<stop  offset="1" style="stop-color:#0E490C"/>
		</linearGradient>
		<path style="fill:url(#SVGID_00000106149278071346595830000014568695568386038691_);" d="M153.5,139.8l6.1,1.6
			c0.5,0.1,1.1-0.2,1.3-0.7l0,0c0.1-0.5-0.2-1.1-0.7-1.2l-6.1-1.6L153.5,139.8z"/>
		
			<linearGradient id="SVGID_00000175322933129607756460000013673622656813686719_" gradientUnits="userSpaceOnUse" x1="114.4132" y1="533.4985" x2="414.7796" y2="118.4885">
			<stop  offset="0" style="stop-color:#26C9C4"/>
			<stop  offset="1" style="stop-color:#0E490C"/>
		</linearGradient>
		<path style="fill:url(#SVGID_00000175322933129607756460000013673622656813686719_);" d="M325.4,235.6L325.4,235.6
			c-0.4,0.4-0.4,1,0,1.4l4.5,4.5l1.4-1.4l-4.5-4.5C326.5,235.2,325.8,235.2,325.4,235.6z"/>
		
			<linearGradient id="SVGID_00000161604958545830346460000014785848737969745571_" gradientUnits="userSpaceOnUse" x1="97.022" y1="520.9115" x2="397.3883" y2="105.9015">
			<stop  offset="0" style="stop-color:#26C9C4"/>
			<stop  offset="1" style="stop-color:#0E490C"/>
		</linearGradient>
		<path style="fill:url(#SVGID_00000161604958545830346460000014785848737969745571_);" d="M281.3,261.1L281.3,261.1
			c-0.5,0.1-0.9,0.7-0.7,1.3l1.6,6.1l2-0.5l-1.6-6.1C282.4,261.3,281.8,261,281.3,261.1z"/>
		
			<linearGradient id="SVGID_00000062168242225750345110000001344547441016384161_" gradientUnits="userSpaceOnUse" x1="-31.5149" y1="427.8821" x2="268.8515" y2="12.8721">
			<stop  offset="0" style="stop-color:#26C9C4"/>
			<stop  offset="1" style="stop-color:#0E490C"/>
		</linearGradient>
		<path style="fill:url(#SVGID_00000062168242225750345110000001344547441016384161_);" d="M230.5,71.1L230.5,71.1
			c0.5-0.1,0.9-0.7,0.7-1.3l-1.6-6.1l-2,0.5l1.6,6.1C229.4,70.9,230,71.2,230.5,71.1z"/>
		
			<linearGradient id="SVGID_00000054261098654828816220000008000487894723065522_" gradientUnits="userSpaceOnUse" x1="62.2665" y1="495.757" x2="362.6329" y2="80.747">
			<stop  offset="0" style="stop-color:#26C9C4"/>
			<stop  offset="1" style="stop-color:#0E490C"/>
		</linearGradient>
		<path style="fill:url(#SVGID_00000054261098654828816220000008000487894723065522_);" d="M230.3,261.1c-0.5-0.1-1.1,0.2-1.3,0.7
			l-1.6,6.1l2,0.5l1.6-6.1C231.2,261.8,230.8,261.2,230.3,261.1L230.3,261.1z"/>
		
			<linearGradient id="SVGID_00000076572034157014826400000005280907510999753363_" gradientUnits="userSpaceOnUse" x1="19.4669" y1="464.7805" x2="319.8333" y2="49.7705">
			<stop  offset="0" style="stop-color:#26C9C4"/>
			<stop  offset="1" style="stop-color:#0E490C"/>
		</linearGradient>
		<path style="fill:url(#SVGID_00000076572034157014826400000005280907510999753363_);" d="M181.6,241.6l4.5-4.5
			c0.4-0.4,0.4-1,0-1.4l0,0c-0.4-0.4-1-0.4-1.4,0l-4.5,4.5L181.6,241.6z"/>
		
			<linearGradient id="SVGID_00000159433811743979085170000017457148785721514123_" gradientUnits="userSpaceOnUse" x1="-19.7497" y1="436.3972" x2="280.6167" y2="21.3872">
			<stop  offset="0" style="stop-color:#26C9C4"/>
			<stop  offset="1" style="stop-color:#0E490C"/>
		</linearGradient>
		<path style="fill:url(#SVGID_00000159433811743979085170000017457148785721514123_);" d="M159.9,192.7c0.5-0.1,0.9-0.7,0.7-1.2
			l0,0c-0.1-0.5-0.7-0.9-1.3-0.7l-6.1,1.6l0.5,2L159.9,192.7z"/>
		
			<linearGradient id="SVGID_00000050647980943126125210000001220400128403888292_" gradientUnits="userSpaceOnUse" x1="110.0719" y1="530.3564" x2="410.4382" y2="115.3464">
			<stop  offset="0" style="stop-color:#26C9C4"/>
			<stop  offset="1" style="stop-color:#0E490C"/>
		</linearGradient>
		<path style="fill:url(#SVGID_00000050647980943126125210000001220400128403888292_);" d="M350.9,191.5L350.9,191.5
			c-0.1,0.5,0.2,1.1,0.7,1.3l6.1,1.6l0.5-2l-6.1-1.6C351.6,190.6,351.1,190.9,350.9,191.5z"/>
		
			<linearGradient id="SVGID_00000166656118887797397340000003479040033733478329_" gradientUnits="userSpaceOnUse" x1="-48.6853" y1="415.4549" x2="251.6811" y2="0.4449">
			<stop  offset="0" style="stop-color:#26C9C4"/>
			<stop  offset="1" style="stop-color:#0E490C"/>
		</linearGradient>
		<path style="fill:url(#SVGID_00000166656118887797397340000003479040033733478329_);" d="M186.6,96.8L186.6,96.8
			c0.4-0.4,0.4-1,0-1.4l-4.5-4.5l-1.4,1.4l4.5,4.5C185.5,97.2,186.2,97.2,186.6,96.8z"/>
		
			<linearGradient id="SVGID_00000083781679173779366050000002168878819268186275_" gradientUnits="userSpaceOnUse" x1="2.9404" y1="452.8193" x2="303.3068" y2="37.8093">
			<stop  offset="0" style="stop-color:#26C9C4"/>
			<stop  offset="1" style="stop-color:#0E490C"/>
		</linearGradient>
		<path style="fill:url(#SVGID_00000083781679173779366050000002168878819268186275_);" d="M281,71.1c0.5,0.1,1.1-0.2,1.3-0.7
			l1.6-6.1l-2-0.5l-1.6,6.1C280.2,70.4,280.5,70.9,281,71.1L281,71.1z"/>
		
			<linearGradient id="SVGID_00000000203151393472976910000010995484355442134198_" gradientUnits="userSpaceOnUse" x1="45.7073" y1="483.7722" x2="346.0736" y2="68.7621">
			<stop  offset="0" style="stop-color:#26C9C4"/>
			<stop  offset="1" style="stop-color:#0E490C"/>
		</linearGradient>
		<path style="fill:url(#SVGID_00000000203151393472976910000010995484355442134198_);" d="M326.4,96.8l4.5-4.5l-1.4-1.4l-4.5,4.5
			c-0.4,0.4-0.4,1,0,1.4l0,0C325.4,97.2,326,97.2,326.4,96.8z"/>
		
			<linearGradient id="SVGID_00000137811701713985206980000016253095731412478124_" gradientUnits="userSpaceOnUse" x1="84.9579" y1="512.1801" x2="385.3242" y2="97.17">
			<stop  offset="0" style="stop-color:#26C9C4"/>
			<stop  offset="1" style="stop-color:#0E490C"/>
		</linearGradient>
		<path style="fill:url(#SVGID_00000137811701713985206980000016253095731412478124_);" d="M351.4,139.5c-0.5,0.1-0.9,0.7-0.7,1.3
			l0,0c0.1,0.5,0.7,0.9,1.3,0.7l6.1-1.6l-0.5-2L351.4,139.5z"/>
		
			<linearGradient id="SVGID_00000132070441060247165200000008072896578851407789_" gradientUnits="userSpaceOnUse" x1="79.0294" y1="507.8892" x2="379.3957" y2="92.8792">
			<stop  offset="0" style="stop-color:#26C9C4"/>
			<stop  offset="1" style="stop-color:#0E490C"/>
		</linearGradient>
		<path style="fill:url(#SVGID_00000132070441060247165200000008072896578851407789_);" d="M261.6,257.4c0-3.2-2.6-5.8-5.8-5.8
			c-3.2,0-5.8,2.6-5.8,5.8v14.5h11.6V257.4z"/>
		
			<linearGradient id="SVGID_00000041257400004841115460000001089670786809909908_" gradientUnits="userSpaceOnUse" x1="-31.1367" y1="428.1558" x2="269.2297" y2="13.1458">
			<stop  offset="0" style="stop-color:#26C9C4"/>
			<stop  offset="1" style="stop-color:#0E490C"/>
		</linearGradient>
		<path style="fill:url(#SVGID_00000041257400004841115460000001089670786809909908_);" d="M149.9,171.8h14.5c3.2,0,5.8-2.6,5.8-5.8
			s-2.6-5.8-5.8-5.8h-14.5V171.8z"/>
		
			<linearGradient id="SVGID_00000171695616320497180560000012934747884190225849_" gradientUnits="userSpaceOnUse" x1="-13.7803" y1="440.7176" x2="286.5861" y2="25.7076">
			<stop  offset="0" style="stop-color:#26C9C4"/>
			<stop  offset="1" style="stop-color:#0E490C"/>
		</linearGradient>
		<path style="fill:url(#SVGID_00000171695616320497180560000012934747884190225849_);" d="M261.6,74.6V60.1H250v14.5
			c0,3.2,2.6,5.8,5.8,5.8C259,80.3,261.6,77.8,261.6,74.6z"/>
		
			<linearGradient id="SVGID_00000011020751241043017900000016884696779988766396_" gradientUnits="userSpaceOnUse" x1="107.4864" y1="528.4852" x2="407.8528" y2="113.4752">
			<stop  offset="0" style="stop-color:#26C9C4"/>
			<stop  offset="1" style="stop-color:#0E490C"/>
		</linearGradient>
		<path style="fill:url(#SVGID_00000011020751241043017900000016884696779988766396_);" d="M370.5,160.1h-10.3l0.1,0.1h-13.1
			c-3.2,0-5.8,2.6-5.8,5.8s2.6,5.8,5.8,5.8h14.5v-9.1l8.5,14.6l5.9,10.2c1.8,3.1,6.3,3.1,8.1,0l5.9-10.2l9.9-17.2h-10.6
			c-0.4-8.7-1.6-17.2-3.6-25.3l-18.1,4.9C369.1,146.2,370.1,153,370.5,160.1z"/>
		
			<linearGradient id="SVGID_00000064328676933785540410000013003921036664779689_" gradientUnits="userSpaceOnUse" x1="106.5526" y1="527.8094" x2="406.919" y2="112.7994">
			<stop  offset="0" style="stop-color:#26C9C4"/>
			<stop  offset="1" style="stop-color:#0E490C"/>
		</linearGradient>
		<path style="fill:url(#SVGID_00000064328676933785540410000013003921036664779689_);" d="M302.8,247l-0.4,0.2
			c-0.5,0.3-0.7,0.9-0.4,1.4l5.6,9.6l2.1-1.2l-5.6-9.6C304,246.9,303.3,246.7,302.8,247z"/>
		
			<linearGradient id="SVGID_00000057132326280036264760000015591917071647059902_" gradientUnits="userSpaceOnUse" x1="41.0376" y1="480.3925" x2="341.404" y2="65.3824">
			<stop  offset="0" style="stop-color:#26C9C4"/>
			<stop  offset="1" style="stop-color:#0E490C"/>
		</linearGradient>
		<path style="fill:url(#SVGID_00000057132326280036264760000015591917071647059902_);" d="M209.5,246.9l-0.4-0.2
			c-0.5-0.3-1.1-0.1-1.4,0.4l-5.6,9.6l2.1,1.2l5.6-9.6C210.1,247.8,210,247.2,209.5,246.9z"/>
		
			<linearGradient id="SVGID_00000072998972902301743780000005652548200285321607_" gradientUnits="userSpaceOnUse" x1="-47.4078" y1="416.3795" x2="252.9585" y2="1.3694">
			<stop  offset="0" style="stop-color:#26C9C4"/>
			<stop  offset="1" style="stop-color:#0E490C"/>
		</linearGradient>
		<path style="fill:url(#SVGID_00000072998972902301743780000005652548200285321607_);" d="M163.9,114.5l9.6,5.6
			c0.5,0.3,1.1,0.1,1.4-0.4l0.2-0.4c0.3-0.5,0.1-1.1-0.4-1.4l-9.6-5.6L163.9,114.5z"/>
		
			<linearGradient id="SVGID_00000152225348871145124680000004677468484439320479_" gradientUnits="userSpaceOnUse" x1="-0.4569" y1="450.3605" x2="299.9095" y2="35.3505">
			<stop  offset="0" style="stop-color:#26C9C4"/>
			<stop  offset="1" style="stop-color:#0E490C"/>
		</linearGradient>
		<path style="fill:url(#SVGID_00000152225348871145124680000004677468484439320479_);" d="M174.7,214c0.5-0.3,0.7-0.9,0.4-1.4
			l-0.2-0.4c-0.3-0.5-0.9-0.7-1.4-0.4l-9.6,5.6l1.2,2.1L174.7,214z"/>
		
			<linearGradient id="SVGID_00000122720357480870955100000001646999993512263319_" gradientUnits="userSpaceOnUse" x1="-40.8783" y1="421.1052" x2="259.4881" y2="6.0952">
			<stop  offset="0" style="stop-color:#26C9C4"/>
			<stop  offset="1" style="stop-color:#0E490C"/>
		</linearGradient>
		<path style="fill:url(#SVGID_00000122720357480870955100000001646999993512263319_);" d="M209.1,85.3l0.4-0.2
			c0.5-0.3,0.7-0.9,0.4-1.4l-5.6-9.6l-2.1,1.2l5.6,9.6C208,85.4,208.6,85.6,209.1,85.3z"/>
		
			<linearGradient id="SVGID_00000153668842176863714520000003088271119840761269_" gradientUnits="userSpaceOnUse" x1="24.2816" y1="468.2651" x2="324.6479" y2="53.2551">
			<stop  offset="0" style="stop-color:#26C9C4"/>
			<stop  offset="1" style="stop-color:#0E490C"/>
		</linearGradient>
		<path style="fill:url(#SVGID_00000153668842176863714520000003088271119840761269_);" d="M302.8,84.9c0.5,0.3,1.1,0.1,1.4-0.4
			l5.6-9.6l-2.1-1.2l-5.6,9.6c-0.3,0.5-0.1,1.1,0.4,1.4L302.8,84.9z"/>
		
			<linearGradient id="SVGID_00000084514347341218356220000017611026566010089096_" gradientUnits="userSpaceOnUse" x1="113.0816" y1="532.5347" x2="413.4479" y2="117.5247">
			<stop  offset="0" style="stop-color:#26C9C4"/>
			<stop  offset="1" style="stop-color:#0E490C"/>
		</linearGradient>
		<path style="fill:url(#SVGID_00000084514347341218356220000017611026566010089096_);" d="M337.1,212.6l-0.2,0.4
			c-0.3,0.5-0.1,1.1,0.4,1.4l9.6,5.6l1.2-2.1l-9.6-5.6C338,212,337.3,212.2,337.1,212.6z"/>
		
			<linearGradient id="SVGID_00000023258428355255669080000011119767509469855112_" gradientUnits="userSpaceOnUse" x1="81.1033" y1="509.3903" x2="381.4697" y2="94.3803">
			<stop  offset="0" style="stop-color:#26C9C4"/>
			<stop  offset="1" style="stop-color:#0E490C"/>
		</linearGradient>
		<path style="fill:url(#SVGID_00000023258428355255669080000011119767509469855112_);" d="M252.3,280.8c-7.9-0.2-15.6-1.3-23-3
			l-4.9,18.1c9,2.1,18.3,3.4,27.8,3.6V280.8z"/>
		
			<linearGradient id="SVGID_00000029732872888928524370000016681181313243879862_" gradientUnits="userSpaceOnUse" x1="56.7856" y1="491.7901" x2="357.1519" y2="76.7801">
			<stop  offset="0" style="stop-color:#26C9C4"/>
			<stop  offset="1" style="stop-color:#0E490C"/>
		</linearGradient>
		<path style="fill:url(#SVGID_00000029732872888928524370000016681181313243879862_);" d="M222.7,276c-7.5-2.2-14.6-5.2-21.4-8.9
			l-9.4,16.3c8.2,4.4,16.8,8.1,25.9,10.8L222.7,276z"/>
		
			<linearGradient id="SVGID_00000151501385287506032580000015928045259229244298_" gradientUnits="userSpaceOnUse" x1="29.6128" y1="472.1237" x2="329.9792" y2="57.1137">
			<stop  offset="0" style="stop-color:#26C9C4"/>
			<stop  offset="1" style="stop-color:#0E490C"/>
		</linearGradient>
		<path style="fill:url(#SVGID_00000151501385287506032580000015928045259229244298_);" d="M195.4,263.7
			c-6.6-4.1-12.7-8.8-18.4-14.1l-13.3,13.3c6.8,6.4,14.2,12.2,22.2,17.1L195.4,263.7z"/>
		
			<linearGradient id="SVGID_00000077287055471545156100000011571489144574540200_" gradientUnits="userSpaceOnUse" x1="3.0692" y1="452.9125" x2="303.4356" y2="37.9025">
			<stop  offset="0" style="stop-color:#26C9C4"/>
			<stop  offset="1" style="stop-color:#0E490C"/>
		</linearGradient>
		<path style="fill:url(#SVGID_00000077287055471545156100000011571489144574540200_);" d="M172.2,244.7c-5.3-5.6-10-11.8-14.1-18.4
			l-16.3,9.4c4.9,8,10.7,15.5,17.1,22.2L172.2,244.7z"/>
		
			<linearGradient id="SVGID_00000060030100413375511290000001326423894934606255_" gradientUnits="userSpaceOnUse" x1="-20.682" y1="435.7225" x2="279.6844" y2="20.7125">
			<stop  offset="0" style="stop-color:#26C9C4"/>
			<stop  offset="1" style="stop-color:#0E490C"/>
		</linearGradient>
		<path style="fill:url(#SVGID_00000060030100413375511290000001326423894934606255_);" d="M127.6,203.9c2.7,9.1,6.3,17.8,10.8,25.9
			l16.3-9.4c-3.6-6.8-6.6-13.9-8.9-21.4L127.6,203.9z"/>
		
			<linearGradient id="SVGID_00000006709131719105381350000000863948908531651263_" gradientUnits="userSpaceOnUse" x1="-40.7947" y1="421.1657" x2="259.5716" y2="6.1557">
			<stop  offset="0" style="stop-color:#26C9C4"/>
			<stop  offset="1" style="stop-color:#0E490C"/>
		</linearGradient>
		<path style="fill:url(#SVGID_00000006709131719105381350000000863948908531651263_);" d="M144,192.4c-1.7-7.4-2.8-15.1-3-23h-18.8
			c0.2,9.6,1.5,18.9,3.6,27.8L144,192.4z"/>
		
			<linearGradient id="SVGID_00000040535544038051384020000007499339295388347556_" gradientUnits="userSpaceOnUse" x1="-55.9101" y1="410.2259" x2="244.4563" y2="-4.7841">
			<stop  offset="0" style="stop-color:#26C9C4"/>
			<stop  offset="1" style="stop-color:#0E490C"/>
		</linearGradient>
		<path style="fill:url(#SVGID_00000040535544038051384020000007499339295388347556_);" d="M144,139.6l-18.1-4.9
			c-2.1,9-3.4,18.3-3.6,27.8H141C141.2,154.7,142.2,147,144,139.6z"/>
		
			<linearGradient id="SVGID_00000013180834657042396870000004872619447927699122_" gradientUnits="userSpaceOnUse" x1="-64.9936" y1="403.6516" x2="235.3728" y2="-11.3584">
			<stop  offset="0" style="stop-color:#26C9C4"/>
			<stop  offset="1" style="stop-color:#0E490C"/>
		</linearGradient>
		<path style="fill:url(#SVGID_00000013180834657042396870000004872619447927699122_);" d="M154.6,111.5l-16.3-9.4
			c-4.5,8.2-8.1,16.8-10.8,25.9l18.1,4.9C148,125.5,151,118.3,154.6,111.5z"/>
		
			<linearGradient id="SVGID_00000143595940609123962160000009554286214352319385_" gradientUnits="userSpaceOnUse" x1="-67.617" y1="401.7529" x2="232.7494" y2="-13.2571">
			<stop  offset="0" style="stop-color:#26C9C4"/>
			<stop  offset="1" style="stop-color:#0E490C"/>
		</linearGradient>
		<path style="fill:url(#SVGID_00000143595940609123962160000009554286214352319385_);" d="M172.2,87.2L158.9,74
			c-6.4,6.8-12.2,14.2-17.1,22.2l16.3,9.4C162.2,99,166.9,92.9,172.2,87.2z"/>
		
			<linearGradient id="SVGID_00000153670655560181493440000012665638164437671102_" gradientUnits="userSpaceOnUse" x1="-63.577" y1="404.6768" x2="236.7893" y2="-10.3332">
			<stop  offset="0" style="stop-color:#26C9C4"/>
			<stop  offset="1" style="stop-color:#0E490C"/>
		</linearGradient>
		<path style="fill:url(#SVGID_00000153670655560181493440000012665638164437671102_);" d="M195.4,68.3L186,52
			c-8,4.9-15.5,10.7-22.2,17.1L177,82.4C182.7,77.1,188.8,72.4,195.4,68.3z"/>
		
			<linearGradient id="SVGID_00000147192784641015579830000000447217430199883399_" gradientUnits="userSpaceOnUse" x1="-53.1537" y1="412.2209" x2="247.2127" y2="-2.7892">
			<stop  offset="0" style="stop-color:#26C9C4"/>
			<stop  offset="1" style="stop-color:#0E490C"/>
		</linearGradient>
		<path style="fill:url(#SVGID_00000147192784641015579830000000447217430199883399_);" d="M222.8,56l-4.9-18.1
			c-9.1,2.7-17.8,6.3-25.9,10.8l9.4,16.3C208.1,61.2,215.3,58.2,222.8,56z"/>
		
			<linearGradient id="SVGID_00000120547001498891634550000006816461170115454356_" gradientUnits="userSpaceOnUse" x1="-36.8702" y1="424.0061" x2="263.4961" y2="8.9961">
			<stop  offset="0" style="stop-color:#26C9C4"/>
			<stop  offset="1" style="stop-color:#0E490C"/>
		</linearGradient>
		<path style="fill:url(#SVGID_00000120547001498891634550000006816461170115454356_);" d="M252.3,51.2V32.4
			c-9.6,0.2-18.9,1.5-27.8,3.6l4.9,18.1C236.8,52.4,244.5,51.4,252.3,51.2z"/>
		
			<linearGradient id="SVGID_00000174602496793613034060000006699093654650211226_" gradientUnits="userSpaceOnUse" x1="-15.8525" y1="439.2179" x2="284.5139" y2="24.2078">
			<stop  offset="0" style="stop-color:#26C9C4"/>
			<stop  offset="1" style="stop-color:#0E490C"/>
		</linearGradient>
		<path style="fill:url(#SVGID_00000174602496793613034060000006699093654650211226_);" d="M287,36c-9-2.1-18.3-3.4-27.8-3.6v18.8
			c7.9,0.2,15.6,1.3,23,3L287,36z"/>
		
			<linearGradient id="SVGID_00000078009060793827624110000007177933686279211174_" gradientUnits="userSpaceOnUse" x1="8.4667" y1="456.819" x2="308.8331" y2="41.809">
			<stop  offset="0" style="stop-color:#26C9C4"/>
			<stop  offset="1" style="stop-color:#0E490C"/>
		</linearGradient>
		<path style="fill:url(#SVGID_00000078009060793827624110000007177933686279211174_);" d="M319.6,48.6c-8.2-4.4-16.8-8.1-25.9-10.8
			L288.8,56c7.5,2.2,14.6,5.2,21.4,8.9L319.6,48.6z"/>
		
			<linearGradient id="SVGID_00000150103777618603380190000005368780318936498111_" gradientUnits="userSpaceOnUse" x1="35.6387" y1="476.485" x2="336.0051" y2="61.4749">
			<stop  offset="0" style="stop-color:#26C9C4"/>
			<stop  offset="1" style="stop-color:#0E490C"/>
		</linearGradient>
		<path style="fill:url(#SVGID_00000150103777618603380190000005368780318936498111_);" d="M334.5,82.4l13.3-13.3
			c-6.8-6.4-14.2-12.2-22.2-17.1l-9.4,16.3C322.7,72.4,328.9,77.1,334.5,82.4z"/>
		
			<linearGradient id="SVGID_00000058579961813371410220000010261077617386367163_" gradientUnits="userSpaceOnUse" x1="62.1797" y1="495.6942" x2="362.5461" y2="80.6842">
			<stop  offset="0" style="stop-color:#26C9C4"/>
			<stop  offset="1" style="stop-color:#0E490C"/>
		</linearGradient>
		<path style="fill:url(#SVGID_00000058579961813371410220000010261077617386367163_);" d="M353.5,105.6l16.3-9.4
			c-4.9-8-10.7-15.5-17.1-22.2l-13.3,13.3C344.7,92.9,349.4,99,353.5,105.6z"/>
		
			<linearGradient id="SVGID_00000141429916467624029790000009953663452846529163_" gradientUnits="userSpaceOnUse" x1="85.9346" y1="512.8869" x2="386.3009" y2="97.8769">
			<stop  offset="0" style="stop-color:#26C9C4"/>
			<stop  offset="1" style="stop-color:#0E490C"/>
		</linearGradient>
		<path style="fill:url(#SVGID_00000141429916467624029790000009953663452846529163_);" d="M365.8,132.9l18.1-4.9
			c-2.7-9.1-6.3-17.8-10.8-25.9l-16.3,9.4C360.6,118.3,363.6,125.5,365.8,132.9z"/>
		
			<linearGradient id="SVGID_00000051358133985625330230000001230061797695136155_" gradientUnits="userSpaceOnUse" x1="120.46" y1="537.8749" x2="420.8264" y2="122.8649">
			<stop  offset="0" style="stop-color:#26C9C4"/>
			<stop  offset="1" style="stop-color:#0E490C"/>
		</linearGradient>
		<path style="fill:url(#SVGID_00000051358133985625330230000001230061797695136155_);" d="M425.5,294.5c-6-5.9-14-9.2-22.6-9.2
			s-16.6,3.3-22.6,9.2l-62.5,61.9c-1.3-3.3-3.3-7.2-6.7-9.9c-5.3-5.3-12-7.9-18.6-8.6l-154.2-16.5c-2.7,0-4.7,0.7-6.6,2.6
			l-63.8,63.2c-2,2-2.7,4-2.7,5.9s1.3,4.6,2.7,5.9l66.5,65.8c2,2,4,2.6,6,2.6c2,0,4-0.7,5.3-2l18.6-18.4l144.9,5.3
			c2,0,4.7-1.3,6-2.6l110.4-110.6c6-5.9,9.3-13.8,9.3-22.4C434.8,308.3,431.5,300.4,425.5,294.5z M414.2,328.7L306.5,436l-145.3-6.6
			l-29-28.8c-2.7-2.6-6.9-2.6-9.6,0c-2.7,2.6-2.7,6.9,0,9.5l27.2,27l-10.2,10.1l-54.5-54l54.5-54.6L290.6,355c3.3,0.7,6.6,2,8.6,3.9
			c2,2,3.3,4.6,4,7.9c0,2,0,3.9-0.7,5.3c-0.7,0.7-1.3,2-1.3,3.3c-2,4.6-6.6,6.6-12,6.6l-85.1-3.9c-4.7,0-8.6,3.3-8.6,7.9
			c0,4.6,3.3,8.6,8,8.6l85.1,3.9c12,0.7,23.3-5.9,28.6-17.1l74.5-75.1c3.3-3.3,7.3-4.6,11.3-4.6c4.7,0,8.6,2,11.3,4.6
			c3.3,3.3,4.7,7.2,4.7,11.2C418.9,322.1,416.9,326.1,414.2,328.7z"/>
	</g>
</g>
</svg>
