<?xml version="1.0" encoding="utf-8"?>
<!-- Generator: Adobe Illustrator 27.2.0, SVG Export Plug-In . SVG Version: 6.00 Build 0)  -->
<svg version="1.1" id="Слой_9" xmlns="http://www.w3.org/2000/svg" xmlns:xlink="http://www.w3.org/1999/xlink" x="0px" y="0px"
	 viewBox="0 0 500 500" style="enable-background:new 0 0 500 500;" xml:space="preserve">
<style type="text/css">
	.st0{fill:#FFFFFF;}
	.st1{fill:#82D8D1;}
	.st2{fill:#FCD5B7;}
	.st3{fill:#F6A667;}
	.st4{fill:#F98638;}
	.st5{fill:#EC6907;}
	.st6{fill:url(#SVGID_1_);}
	.st7{fill:url(#SVGID_00000053520291528333846930000009875317732809342381_);}
	.st8{fill:#1E81CE;}
	.st9{fill:#0B71B7;}
	.st10{fill:#0067A0;}
	.st11{fill:#005377;}
	.st12{fill:#9BC9FF;}
	.st13{fill:url(#SVGID_00000074433925492645062860000001101028558086419123_);}
	.st14{fill:url(#SVGID_00000123436667350870907380000005091961873898051259_);}
	.st15{fill:url(#SVGID_00000176743738179679871280000014214333493891543971_);}
	.st16{fill:url(#SVGID_00000050650166868391474550000001616598875074661008_);}
	.st17{fill:url(#SVGID_00000113348648672707525750000011700350083327654561_);}
	.st18{fill:url(#SVGID_00000018926098573904647350000013499958327286263478_);}
	.st19{fill:url(#SVGID_00000031172625287044292000000003133715316358241152_);}
	.st20{fill:url(#SVGID_00000062192229701447640590000001944559842025247370_);}
	.st21{fill:url(#SVGID_00000051383111230534933320000004283681029878201748_);}
	.st22{fill:url(#SVGID_00000068673787038952525350000010316407648482148533_);}
	.st23{fill:url(#SVGID_00000000202593446456954490000000972813584672569020_);}
	.st24{fill:url(#SVGID_00000083080402178898879180000004263028822362056325_);}
	.st25{fill:url(#SVGID_00000130633344653546237720000000184700601171055283_);}
	.st26{fill:url(#SVGID_00000163045736475714084860000005805840169909586090_);}
	.st27{fill:url(#SVGID_00000143596923940447797280000010311310025067609529_);}
	.st28{fill:url(#SVGID_00000173161555350889803700000010132179226298347655_);}
	.st29{fill:url(#SVGID_00000111188630368220550720000007221139047599019704_);}
	.st30{fill:url(#SVGID_00000161624133949365565750000000433600644748007594_);}
	.st31{fill:url(#SVGID_00000157989889119314401890000004481129828833001615_);}
	.st32{fill:url(#SVGID_00000107587767394236603210000005841822824581585585_);}
	.st33{fill:url(#SVGID_00000129201557554177591840000003220351854833077429_);}
	.st34{fill:url(#SVGID_00000124157555719795141430000013951542825858995087_);}
	.st35{fill:url(#SVGID_00000087411610491051113430000012790629522099725710_);}
	.st36{fill:url(#SVGID_00000040536339479320904770000013877600946027864708_);}
	.st37{fill:url(#SVGID_00000125579576406400336700000009981373551033850047_);}
	.st38{fill:url(#SVGID_00000047055542802642454170000013381164920749281702_);}
	.st39{fill:url(#SVGID_00000103241070784251825300000012161981805670566050_);}
	.st40{fill:url(#SVGID_00000065036937404110603990000000126735826181259931_);}
	.st41{fill:url(#SVGID_00000121257115655636519000000009789354922757010867_);}
	.st42{fill:url(#SVGID_00000051385165000209351350000003185660065039455623_);}
	.st43{fill:url(#SVGID_00000065790725254864027910000017487114791557650858_);}
	.st44{fill:url(#SVGID_00000142175170488221650830000008280394844339660462_);}
	.st45{fill:url(#SVGID_00000045593032681532772900000014551800245064283576_);}
	.st46{fill:url(#SVGID_00000152981417194813351160000006516330127733381022_);}
	.st47{fill:url(#SVGID_00000043429030037918596690000012087862650383771065_);}
	.st48{fill:url(#SVGID_00000155838856116177129870000000824574587322520720_);}
	.st49{fill:url(#SVGID_00000044869364820040479510000015172603889759426466_);}
	.st50{fill:url(#SVGID_00000052812981795777392550000007762246466925502902_);}
	.st51{fill:url(#SVGID_00000041276266844489927010000014956909364086862497_);}
	.st52{fill:url(#SVGID_00000140735058380731412550000004373554262380618174_);}
	.st53{fill:url(#SVGID_00000129895660435539814400000012151131348435552401_);}
	.st54{fill:url(#SVGID_00000001632352413707005120000012370902084809476029_);}
	.st55{fill-rule:evenodd;clip-rule:evenodd;fill:#82D8D1;}
	.st56{fill:url(#SVGID_00000096780157133136624170000001383836737488908217_);}
	.st57{fill:url(#SVGID_00000089553337563580341420000004418886447176064438_);}
	.st58{fill:url(#SVGID_00000178923230509174255770000017647038396614931349_);}
	.st59{fill:url(#SVGID_00000070827120767798933460000003584533998437323414_);}
	.st60{fill:url(#SVGID_00000060010831880975026250000009203343855154271118_);}
	.st61{fill:url(#SVGID_00000049191090230946056320000016624102563786498962_);}
	.st62{fill:url(#SVGID_00000150067573698694579190000003310864063396944791_);}
	.st63{fill:url(#SVGID_00000000917179793645851750000004068034619665639581_);}
	.st64{fill:url(#SVGID_00000021812104245019503140000014608136498578455171_);}
	.st65{fill:url(#SVGID_00000118397458468018273960000009208965755118055854_);}
	.st66{fill:url(#SVGID_00000052798443478818881410000004430051327726852777_);}
	.st67{fill:url(#SVGID_00000122683333091359349980000012544226758226039707_);}
	.st68{fill:url(#SVGID_00000059268849216845549240000012479873147342405784_);}
	.st69{fill:url(#SVGID_00000005947357367312140610000007761235941552610203_);}
	.st70{fill:url(#SVGID_00000054958567247166437190000006953305745721545141_);}
	.st71{fill:url(#SVGID_00000183208020183071430690000014311990462386316475_);}
	.st72{fill:url(#SVGID_00000170968372462548820450000008742010378483982251_);}
	.st73{fill:url(#SVGID_00000024696676832406397970000004143776959924855462_);}
	.st74{fill:url(#SVGID_00000044174842099636215150000014475858772680549524_);}
	.st75{fill:url(#SVGID_00000077301526493232480920000006816415105578975917_);}
	.st76{fill:url(#SVGID_00000140720250593386213310000002027900756377883793_);}
	.st77{fill:url(#SVGID_00000000906730937325585380000006203142255394121663_);}
	.st78{fill:url(#SVGID_00000067224990694069975920000018247447772856334210_);}
	.st79{fill:url(#SVGID_00000047019494532641870700000008312364091555883652_);}
	.st80{fill:url(#SVGID_00000094576879488040973300000008765913592136771733_);}
	.st81{fill:url(#SVGID_00000155140178672036767040000015512353787856846261_);}
	.st82{fill:url(#SVGID_00000075874038379357633710000005362755100925499527_);}
	.st83{fill:url(#SVGID_00000106113971512082222980000011414212011243978139_);}
	.st84{fill:url(#SVGID_00000020392421526156179760000015201677195722029501_);}
	.st85{fill:url(#SVGID_00000082338114119793694160000012854828859110572682_);}
	.st86{fill:url(#SVGID_00000142143800181797550740000012376727937673740223_);}
	.st87{fill:url(#SVGID_00000094581615290729823060000015818163190436632240_);}
	.st88{fill:url(#SVGID_00000087398380272352511830000014274219723571574964_);}
	.st89{fill:url(#SVGID_00000142886919212061399800000013601602662200623012_);}
	.st90{fill:url(#SVGID_00000039822133124439429610000015898709992448945577_);}
	.st91{fill:url(#SVGID_00000024686408738869556680000018179806841093673897_);}
	.st92{fill:url(#SVGID_00000098208605538023150650000010137631717955186321_);}
	.st93{fill:url(#SVGID_00000170237622199883366040000017748416682719336855_);}
	.st94{fill:url(#SVGID_00000134952515807505727860000008969390677386213519_);}
	.st95{fill:url(#SVGID_00000170972207897139289110000018394803038430383545_);}
	.st96{fill:url(#SVGID_00000038384408930250183940000012513015102748514957_);}
	.st97{fill:url(#SVGID_00000017481251950750155160000000327117464366366608_);}
	.st98{fill:url(#SVGID_00000169546229159863801180000007484930674549183110_);}
	.st99{fill:url(#SVGID_00000007424946775624295100000002076493936289747123_);}
	.st100{fill:url(#SVGID_00000000904234093508803540000008508862306761554068_);}
	.st101{fill:url(#SVGID_00000080205624766144509740000011449296795976362675_);}
	.st102{fill:url(#SVGID_00000158725679890151888290000003638965995380888220_);}
	.st103{fill:url(#SVGID_00000025434042586728729730000000262046477426747264_);}
	.st104{fill:url(#SVGID_00000000205566174328409900000013206589606849552038_);}
	.st105{fill:url(#SVGID_00000119836165089200038230000017322549640700813476_);}
	.st106{fill:url(#SVGID_00000096048965288970451500000009089037858139580564_);}
	.st107{fill:url(#SVGID_00000180368654266578277400000003607374483304641932_);}
	.st108{fill:url(#SVGID_00000182512905356531242920000012628631492957517471_);}
	.st109{fill:url(#SVGID_00000113325626306420234590000016572353820505362329_);}
	.st110{fill:url(#SVGID_00000054229224422747908630000011711230002402789803_);}
	.st111{fill:url(#SVGID_00000179614171342078175370000015211626920168827322_);}
	.st112{fill:url(#SVGID_00000015341582915233949840000017622373097239949959_);}
	.st113{fill:url(#SVGID_00000164511120936536874390000008687125373699908497_);}
	.st114{fill:url(#SVGID_00000103237829006729685200000005323587037408967326_);}
	.st115{fill:url(#SVGID_00000041292748681560204040000006201527398828523403_);}
	.st116{fill:url(#SVGID_00000090253302093093859790000017763388885430208953_);}
	.st117{fill:url(#SVGID_00000070113390094380441800000005968481653349294523_);}
	.st118{fill:url(#SVGID_00000028326228991718776260000016934792668170752131_);}
	.st119{fill:url(#SVGID_00000112614971858593578110000013054618298365037184_);}
	.st120{fill:url(#SVGID_00000106827029542875723110000004373736446027726732_);}
	.st121{fill:url(#SVGID_00000114758425193973797560000018360882016544513170_);}
	.st122{fill:url(#SVGID_00000016060513228912394780000014136279862857571230_);}
</style>
<g>
	<g>
		<g>
			<path class="st1" d="M334.6,239.9v77.6H150.2c-8-14.1-22.3-22.9-38.3-22.9c-16.9,0-31.2,8.8-38.3,22.1H22.8V239h66.8h56.1h44.5
				h56.1h88.2V239.9z"/>
		</g>
		<g>
			<linearGradient id="SVGID_1_" gradientUnits="userSpaceOnUse" x1="31.399" y1="394.434" x2="363.8656" y2="162.8538">
				<stop  offset="0" style="stop-color:#26C9C4"/>
				<stop  offset="1" style="stop-color:#0E490C"/>
			</linearGradient>
			<path class="st6" d="M128.1,338.7c0-3.2-0.7-5.8-1.9-8.3c-3.2-4.5-8.4-7.7-14.2-7.7c-5.8,0-11.6,2.6-14.2,7.7
				c-1.3,2.6-1.9,5.8-1.9,8.3c0,9,7.1,16,16.2,16C120.3,354.7,128.1,347.7,128.1,338.7z"/>
			
				<linearGradient id="SVGID_00000000902342185776130610000005370122449690913682_" gradientUnits="userSpaceOnUse" x1="126.1528" y1="530.4667" x2="458.6194" y2="298.8865">
				<stop  offset="0" style="stop-color:#26C9C4"/>
				<stop  offset="1" style="stop-color:#0E490C"/>
			</linearGradient>
			<path style="fill:url(#SVGID_00000000902342185776130610000005370122449690913682_);" d="M418.1,338.7c0-3.2-0.7-5.8-1.9-8.3
				c-3.2-4.5-8.4-7.7-14.2-7.7c-5.8,0-11.6,2.6-14.2,7.7c-1.3,2.6-1.9,5.8-1.9,8.3c0,9,7.1,16,16.2,16
				C410.3,354.7,418.1,347.7,418.1,338.7z"/>
			
				<linearGradient id="SVGID_00000145057560472280805860000003166449298013458826_" gradientUnits="userSpaceOnUse" x1="75.5377" y1="457.8014" x2="408.0042" y2="226.2212">
				<stop  offset="0" style="stop-color:#26C9C4"/>
				<stop  offset="1" style="stop-color:#0E490C"/>
			</linearGradient>
			<path style="fill:url(#SVGID_00000145057560472280805860000003166449298013458826_);" d="M378,241.1h-9.4c-5.1,0-9.4,4.3-9.4,9.3
				c0,5,4.3,9.3,9.4,9.3h9.4c4.4,0,9.4-4.3,9.4-9.3C387.5,245.5,383.1,241.1,378,241.1z"/>
			<g>
				
					<linearGradient id="SVGID_00000129924918443328618190000008562176378155700404_" gradientUnits="userSpaceOnUse" x1="61.9165" y1="438.2463" x2="394.3831" y2="206.6661">
					<stop  offset="0" style="stop-color:#26C9C4"/>
					<stop  offset="1" style="stop-color:#0E490C"/>
				</linearGradient>
				<path style="fill:url(#SVGID_00000129924918443328618190000008562176378155700404_);" d="M497.4,316.6v-66.2
					c0-1.9-0.6-3.2-1.4-4.7l-89-132.2c-0.1-0.1-0.1-0.2-0.2-0.3c-1.2-2.3-3.5-3.7-6.3-3.7h-66.8c-4.6,0-8.6,4-8.6,8.5v109.4
					c0,1.6-1.3,2.9-2.9,2.9h-76.6c-0.2,0-0.3,0.1-0.5,0.1c-0.1,0-0.2,0-0.4,0c-0.2,0-0.4,0-0.6-0.1l-222.2,0c-4.6,0-8.6,4-8.6,8.5
					v77.6c0,4.5,4,8.5,8.6,8.5h34.9c0.9,0,1.7,0.4,2.3,1.1c0.6,0.7,0.8,1.6,0.6,2.4c-0.7,3.4-1,6.7-1,10c0,11.1,3.6,21.8,10.3,30.9
					c0.7,0.9,0.8,2.1,0.3,3.1c-0.5,1-1.5,1.6-2.6,1.6H11.2c-4.6,0-8.6,4-8.6,8.5c0,4.5,4,8.5,8.6,8.5h457c3.8,0,7.9-4.1,8.7-8.7
					c-0.1-4.5-4.1-8.3-8.7-8.3h-22.7c-1.1,0-2.1-0.6-2.6-1.6c-0.5-1-0.4-2.2,0.2-3c6.6-9.2,10-19.9,9.6-30.8c0-3.4-0.3-6.7-1-10.1
					c-0.2-0.9,0.1-1.7,0.6-2.4c0.6-0.7,1.4-1.1,2.3-1.1h35.8c1.8,0,3.8-1,5.2-2.6c0.8-0.9,2.1-2.9,1.7-5.5
					C497.4,316.9,497.4,316.8,497.4,316.6z M120.1,374.2c-0.2,0-0.4,0.1-0.6,0.1h-15.2c-0.2,0-0.4,0-0.6-0.1
					c-16.8-3.8-28.5-18.4-28.5-35.5c0-6.7,2-12.6,5.8-17.5c5.7-11,17.8-18.1,31-18.1c10.8,0,21.4,5.1,29.2,13.9
					c0.3,0.4,0.6,0.8,0.7,1.3c0.4,1.8,1.5,3.5,3,4.7c0.4,0.3,0.6,0.7,0.8,1.1c2.1,5,3.1,9.6,3.1,14.5
					C148.6,355.8,136.9,370.4,120.1,374.2z M111,286.9c-16.5,0-32.3,7.8-42.2,20.9c-0.6,0.7-1.4,1.2-2.3,1.2h-33
					c-1.6,0-2.9-1.3-2.9-2.9v-55.6c0-1.6,1.3-2.9,2.9-2.9h211.3c0.6-0.1,0.8,0,1,0l76.3,0c1.6,0,2.9,1.3,2.9,2.9v54.7
					c0,1.6-1.3,2.9-2.9,2.9H154.8c-0.9,0-1.7-0.4-2.3-1.1C142.6,294.4,127,286.9,111,286.9z M358.8,372.6c-0.5,1-1.5,1.6-2.6,1.6
					H156c-1.1,0-2.1-0.6-2.6-1.6c-0.5-1-0.4-2.2,0.2-3c6.6-9.2,10-19.9,9.6-30.8c0-3.4-0.3-6.7-1-10.1c-0.2-0.9,0.1-1.7,0.6-2.4
					c0.6-0.7,1.4-1.1,2.3-1.1h181.2c0.9,0,1.7,0.4,2.3,1.1c0.6,0.7,0.8,1.6,0.6,2.4c-0.7,3.4-1,6.7-1,10c0,11.1,3.6,21.8,10.3,30.9
					C359.2,370.5,359.3,371.7,358.8,372.6z M413.6,374.1c-0.3,0.1-0.6,0.2-1,0.2h-21.1c-0.3,0-0.6-0.1-0.9-0.1
					c-15-5-25.1-18.9-25.1-34.5c0-6,1.5-11.6,4.8-18.1c5.6-11.2,17.8-18.4,31.1-18.4c11.7,0,22.9,5.9,29.9,15.7
					c0.1,0.2,0.3,0.4,0.3,0.6c0.3,0.8,0.8,1.6,1.4,2.4c0.2,0.2,0.3,0.4,0.4,0.6c2.6,5.7,3.9,10.8,3.9,16.2
					C437.3,354.9,427.8,369.1,413.6,374.1z M481.8,305.2c0,1.6-1.3,2.9-2.9,2.9h-34.5c-0.9,0-1.7-0.4-2.3-1.1
					c-10-12.6-25.5-20.1-41.6-20.1c-16.1,0-31.6,7.5-41.6,20.1c-0.6,0.7-1.4,1.1-2.3,1.1h-11.4c-1.6,0-2.9-1.3-2.9-2.9V128.7
					c0-1.6,1.3-2.9,2.9-2.9h49.9c1,0,1.9,0.5,2.4,1.3l44.5,66.2c0.6,0.9,0.7,2.1,0.2,3c-0.5,1-1.5,1.6-2.6,1.6h-49.9
					c-1.6,0-2.9-1.3-2.9-2.9v-22.1c0-4.5-4-8.5-8.6-8.5c-4.6,0-8.6,4-8.6,8.5v33.5c0,4.5,4,8.5,8.6,8.5h76.9c1,0,1.9,0.5,2.4,1.3
					l23.8,35.3c0.3,0.5,0.5,1.1,0.5,1.6V305.2z"/>
			</g>
		</g>
	</g>
	<g>
		
			<linearGradient id="SVGID_00000165945913677579419690000007763923544490525111_" gradientUnits="userSpaceOnUse" x1="-52.8046" y1="273.5476" x2="279.662" y2="41.9674">
			<stop  offset="0" style="stop-color:#26C9C4"/>
			<stop  offset="1" style="stop-color:#0E490C"/>
		</linearGradient>
		<path style="fill:url(#SVGID_00000165945913677579419690000007763923544490525111_);" d="M165.4,147.9v17.9l-65.5,24.9v-17.2
			l45.8-16.6L99.9,140v-17L165.4,147.9z"/>
		
			<linearGradient id="SVGID_00000023251734792038162550000003842563957150433687_" gradientUnits="userSpaceOnUse" x1="-21.9711" y1="317.8135" x2="310.4955" y2="86.2333">
			<stop  offset="0" style="stop-color:#26C9C4"/>
			<stop  offset="1" style="stop-color:#0E490C"/>
		</linearGradient>
		<path style="fill:url(#SVGID_00000023251734792038162550000003842563957150433687_);" d="M242.2,152.9c6.5,5.4,9.7,12.7,9.7,21.7
			c0,5.9-1.5,11.2-4.4,16c-2.9,4.8-7.4,8.7-13.4,11.6c-6,2.9-13.4,4.3-22.2,4.3c-6.8,0-13.5-0.9-20-2.7c-6.6-1.8-12.1-4.3-16.7-7.6
			l8.8-17.1c3.7,2.7,7.9,4.9,12.7,6.4c4.8,1.5,9.7,2.3,14.7,2.3c5.6,0,10-1.1,13.2-3.3c3.2-2.2,4.8-5.3,4.8-9.2c0-4.1-1.7-7.2-5-9.4
			c-3.3-2.1-9.1-3.2-17.4-3.2h-24.6l5-54.2H246v17.9h-40.2l-1.5,18.3h7.8C225.7,144.8,235.7,147.5,242.2,152.9z"/>
	</g>
</g>
</svg>
