<?xml version="1.0" encoding="utf-8"?>
<!-- Generator: Adobe Illustrator 27.2.0, SVG Export Plug-In . SVG Version: 6.00 Build 0)  -->
<svg version="1.1" id="Слой_9" xmlns="http://www.w3.org/2000/svg" xmlns:xlink="http://www.w3.org/1999/xlink" x="0px" y="0px"
	 viewBox="0 0 500 500" style="enable-background:new 0 0 500 500;" xml:space="preserve">
<style type="text/css">
	.st0{fill:#FFFFFF;}
	.st1{fill:#82D8D1;}
	.st2{fill:#FCD5B7;}
	.st3{fill:#F6A667;}
	.st4{fill:#F98638;}
	.st5{fill:#EC6907;}
	.st6{fill:url(#SVGID_1_);}
	.st7{fill:url(#SVGID_00000018202344600304887730000007399107699844981176_);}
	.st8{fill:#1E81CE;}
	.st9{fill:#0B71B7;}
	.st10{fill:#0067A0;}
	.st11{fill:#005377;}
	.st12{fill:#9BC9FF;}
	.st13{fill:url(#SVGID_00000070811373315233771850000010328950260414540967_);}
	.st14{fill:url(#SVGID_00000064318418562623447430000012931345178460148633_);}
	.st15{fill:url(#SVGID_00000093160759841662569030000004045229492976751023_);}
	.st16{fill:url(#SVGID_00000038406171955985825280000004820119541745716390_);}
	.st17{fill:url(#SVGID_00000165928045314649492130000001728918497154767769_);}
	.st18{fill:url(#SVGID_00000095314936587921198720000018243546901662841222_);}
	.st19{fill:url(#SVGID_00000023275663011599875560000015694969428682765502_);}
	.st20{fill:url(#SVGID_00000005948709547104956230000003856001752423629225_);}
	.st21{fill:url(#SVGID_00000023975908622758441080000006069574940215767940_);}
	.st22{fill:url(#SVGID_00000112610316477596834700000017475622027916296854_);}
	.st23{fill:url(#SVGID_00000106141922431177186020000010789071417001352844_);}
	.st24{fill:url(#SVGID_00000032637593432954823580000001913044397426584507_);}
	.st25{fill:url(#SVGID_00000013184351334626717220000006765750740406495151_);}
	.st26{fill:url(#SVGID_00000044893053033126676210000000048766316371106485_);}
	.st27{fill:url(#SVGID_00000142855595149143367760000014578063141127337898_);}
	.st28{fill:url(#SVGID_00000036962914732052587720000004306139094793660557_);}
	.st29{fill:url(#SVGID_00000014633899612937795030000006541606268099613840_);}
	.st30{fill:url(#SVGID_00000070090372300764746430000007739773864104824755_);}
	.st31{fill:url(#SVGID_00000053518656663771091410000006614276638800066692_);}
	.st32{fill:url(#SVGID_00000170236504468592814220000005188311148485146803_);}
	.st33{fill:url(#SVGID_00000077282559802749844360000001801593410467759536_);}
	.st34{fill:url(#SVGID_00000066486077920446730610000014483924531506364094_);}
	.st35{fill:url(#SVGID_00000118383497717554507290000003952016200524314537_);}
	.st36{fill:url(#SVGID_00000155825777286058035450000005611196540211151236_);}
	.st37{fill:url(#SVGID_00000061429256428033355280000007478458885580352668_);}
	.st38{fill:url(#SVGID_00000137824108700739525260000016318283416781361807_);}
	.st39{fill:url(#SVGID_00000065763436243212208680000013673054731143671482_);}
	.st40{fill:url(#SVGID_00000049204632916584627510000017551455150237335194_);}
	.st41{fill:url(#SVGID_00000110471250582754260940000016782854496002150582_);}
	.st42{fill:url(#SVGID_00000120559473126307885090000000252248896893362345_);}
	.st43{fill:url(#SVGID_00000182519783907193044290000017924505133116114359_);}
	.st44{fill:url(#SVGID_00000043448241913262850080000011775819189916534205_);}
	.st45{fill:url(#SVGID_00000065071539354140157450000013009699535044882580_);}
	.st46{fill:url(#SVGID_00000085944403079731471950000007661571941238157738_);}
	.st47{fill:url(#SVGID_00000068676166879951616780000013095026280362350727_);}
	.st48{fill:url(#SVGID_00000183943245978845885140000003263056277378054025_);}
	.st49{fill:url(#SVGID_00000010282600517068029720000016291127565057978508_);}
	.st50{fill:url(#SVGID_00000018915151222650491720000003105422465159888526_);}
	.st51{fill:url(#SVGID_00000172419654638769911400000016189901477884403122_);}
	.st52{fill:url(#SVGID_00000067936422966826834900000004845393806057453717_);}
	.st53{fill:url(#SVGID_00000163047684157554691090000000259003517585020303_);}
	.st54{fill:url(#SVGID_00000055686396879127547390000002886350749410082979_);}
	.st55{fill-rule:evenodd;clip-rule:evenodd;fill:#82D8D1;}
	.st56{fill:url(#SVGID_00000136373856178857024870000015172674156267665799_);}
	.st57{fill:url(#SVGID_00000103975877237769266200000004399987828743721861_);}
	.st58{fill:url(#SVGID_00000080180065949029040820000012784082174119597752_);}
	.st59{fill:url(#SVGID_00000125583412608449926430000002555078001620074664_);}
	.st60{fill:url(#SVGID_00000136379472508507940250000010117444938555345059_);}
	.st61{fill:url(#SVGID_00000155146738377505048460000000180072128489042071_);}
	.st62{fill:url(#SVGID_00000165221400990176535110000007022951695495535781_);}
	.st63{fill:url(#SVGID_00000047755370466434371400000013049972686267145629_);}
	.st64{fill:url(#SVGID_00000110436340819259823010000012118639973422758812_);}
	.st65{fill:url(#SVGID_00000046337563440744851010000002535667066834510242_);}
	.st66{fill:url(#SVGID_00000087394129551726759950000004271361239882341780_);}
	.st67{fill:url(#SVGID_00000021078024645462436480000013734832387075186856_);}
	.st68{fill:url(#SVGID_00000088115609636670431110000008436720284704737724_);}
	.st69{fill:url(#SVGID_00000150791116935751557740000007239626971389874837_);}
	.st70{fill:url(#SVGID_00000063598772137243126630000006273859655087580331_);}
	.st71{fill:url(#SVGID_00000166678072117371750090000012485582122905188538_);}
	.st72{fill:url(#SVGID_00000135674013169988709390000006584682668665063599_);}
	.st73{fill:url(#SVGID_00000021806587178239407750000009963460930925070002_);}
	.st74{fill:url(#SVGID_00000091725197722996679240000017007174402449702293_);}
	.st75{fill:url(#SVGID_00000128478204287518692840000007423907867844859048_);}
	.st76{fill:url(#SVGID_00000005946901298949293500000017902236708088301488_);}
	.st77{fill:url(#SVGID_00000127743299622852775700000001001828061833269639_);}
	.st78{fill:url(#SVGID_00000129895981871009057570000006334279426611364520_);}
	.st79{fill:url(#SVGID_00000103238980929244053480000010124390757535336334_);}
	.st80{fill:url(#SVGID_00000081648698327970953880000002098496798200524687_);}
	.st81{fill:url(#SVGID_00000120559251752583071590000014302478063441139100_);}
	.st82{fill:url(#SVGID_00000142854815400373819450000017718577249338952104_);}
	.st83{fill:url(#SVGID_00000101811068298490933890000006340039787692048773_);}
	.st84{fill:url(#SVGID_00000037687271101294339830000001289809466228315813_);}
	.st85{fill:url(#SVGID_00000165221534749001930270000016958675902052630419_);}
	.st86{fill:url(#SVGID_00000003827606163854253500000002376030956013928638_);}
	.st87{fill:url(#SVGID_00000181074864404243500020000009109306195474354340_);}
	.st88{fill:url(#SVGID_00000007423642981484221180000010387716512790429097_);}
	.st89{fill:url(#SVGID_00000129201710217989807100000003253861288920891324_);}
	.st90{fill:url(#SVGID_00000033349078874378354660000018258991929939015323_);}
	.st91{fill:url(#SVGID_00000168808677468493600960000000242262969616688317_);}
	.st92{fill:url(#SVGID_00000074440389257632129110000000629552305952034217_);}
	.st93{fill:url(#SVGID_00000176042646563422479880000008209354937920321950_);}
	.st94{fill:url(#SVGID_00000080174938320636052100000016713039411267040165_);}
	.st95{fill:url(#SVGID_00000036936955431454987930000014688713090011198894_);}
	.st96{fill:url(#SVGID_00000145021261826606671370000005528547577140211336_);}
	.st97{fill:url(#SVGID_00000183239690207741443460000001005821081523353533_);}
	.st98{fill:url(#SVGID_00000021117571938720720810000000535236636382410934_);}
	.st99{fill:url(#SVGID_00000169547649723534437570000001197275081841295774_);}
	.st100{fill:url(#SVGID_00000116955326896069773660000017659272715577405590_);}
	.st101{fill:url(#SVGID_00000015344524440008642590000007210335291048783023_);}
	.st102{fill:url(#SVGID_00000124129954785531604650000012431878023094478003_);}
	.st103{fill:url(#SVGID_00000067205205359680259390000013018437766647223998_);}
	.st104{fill:url(#SVGID_00000170972351173041804800000014113677939182598065_);}
	.st105{fill:url(#SVGID_00000173853094117690880560000012751901286185893760_);}
	.st106{fill:url(#SVGID_00000011013559523540473480000004683549199880270265_);}
	.st107{fill:url(#SVGID_00000076569462959281387140000011647065592865664951_);}
	.st108{fill:url(#SVGID_00000119820951920809890710000000264168454599023797_);}
	.st109{fill:url(#SVGID_00000174570482086423469450000013839442795555917223_);}
	.st110{fill:url(#SVGID_00000041260440166234014320000013331345694747038367_);}
	.st111{fill:url(#SVGID_00000067920239852037882830000016434609730376853643_);}
	.st112{fill:url(#SVGID_00000180345580210261003270000010434490447265554567_);}
	.st113{fill:url(#SVGID_00000152249282709436514220000002177173566757769860_);}
	.st114{fill:url(#SVGID_00000168096761122781411470000003837719331527991963_);}
	.st115{fill:url(#SVGID_00000106124557445306130770000010086827685635343015_);}
	.st116{fill:url(#SVGID_00000097485321290163665520000011644876365200158880_);}
	.st117{fill:url(#SVGID_00000034079685374204360930000004987460229290507920_);}
	.st118{fill:url(#SVGID_00000164485285213334589320000014899894995043344521_);}
	.st119{fill:url(#SVGID_00000050643399890282197840000017469113257473016510_);}
	.st120{fill:url(#SVGID_00000029750772977635169060000007404903383524303255_);}
	.st121{fill:url(#SVGID_00000042732482070376859630000016285522378487963556_);}
	.st122{fill:url(#SVGID_00000180339512358053779500000014531399891444045953_);}
</style>
<g>
	<g>
		<g>
			<g>
				<g>
					<path class="st0" d="M98.1,434.4c-5.9,0-11.7-2-16.4-5.7l-30.4-23.9c-9.7-7.7-15.9-18.5-17.5-30.6c-1.6-12.2,1.7-24.1,9.2-33.6
						L261.7,63.2c2.6-3.3,6.5-5.2,10.8-5.2c3.2,0,6.3,1.1,8.8,3.1l65.3,51.5c6.1,4.8,7.2,13.6,2.5,19.5L118.1,424.7
						C113.3,430.9,106,434.4,98.1,434.4C98.1,434.4,98.1,434.4,98.1,434.4z"/>
				</g>
				<g>
					<path class="st1" d="M272.5,63.7c1.8,0,3.7,0.6,5.3,1.8L343,117c3.6,2.9,4.3,8,1.5,11.6L113.7,421.2c-3.9,4.9-9.7,7.5-15.6,7.5
						c-4.5,0-9-1.5-12.9-4.5l-30.4-23.9c-17.6-13.9-21-39.1-7.4-56.3L266.2,66.7C267.7,64.7,270.1,63.7,272.5,63.7 M272.5,52.3
						c-6,0-11.6,2.7-15.2,7.4L38.6,336.9c-17.4,22.1-13.2,54.5,9.3,72.2l30.4,23.9c5.7,4.5,12.7,6.9,19.9,6.9
						c9.6,0,18.6-4.3,24.5-11.8l230.9-292.7c6.6-8.4,5.1-20.8-3.4-27.5l-65.3-51.5C281.3,53.9,276.9,52.3,272.5,52.3L272.5,52.3z"/>
				</g>
			</g>
		</g>
	</g>
	<g>
		<g>
			<g>
				<g>
					<path class="st0" d="M94,434.4c-6.7,0-13.1-2.5-18-7.2L48,400.6c-18.6-17.6-19.4-47-1.8-65.5L295.3,71.7
						c2.6-2.8,6.4-4.4,10.2-4.4c3.6,0,7,1.4,9.6,3.8l60.4,57.1c5.6,5.3,5.9,14.2,0.6,19.8L113,426.2
						C108.1,431.4,101.2,434.4,94,434.4C94,434.4,94,434.4,94,434.4z"/>
				</g>
				<g>
					<path class="st1" d="M305.5,73c2.1,0,4.1,0.8,5.8,2.3l60.4,57.1c3.4,3.2,3.5,8.5,0.3,11.8l-263,278.1c-4,4.3-9.5,6.4-14.9,6.4
						c-5.1,0-10.1-1.9-14.1-5.6l-28.1-26.6c-16.3-15.4-17-41.2-1.6-57.5L299.4,75.6C301.1,73.9,303.3,73,305.5,73 M305.5,61.7
						c-5.4,0-10.6,2.2-14.3,6.2L42.1,331.2c-19.7,20.8-18.8,53.8,2,73.5l28.1,26.6c5.9,5.6,13.7,8.7,21.9,8.7
						c8.7,0,17.1-3.6,23.1-9.9l263-278.1c7.5-7.9,7.1-20.4-0.8-27.8L319,67.1C315.4,63.6,310.6,61.7,305.5,61.7L305.5,61.7z"/>
				</g>
			</g>
		</g>
	</g>
	<g>
		<g>
			<g>
				<g>
					<path class="st0" d="M100.7,432.3c-7.5,0-14.6-3.2-19.5-8.8l-25.7-28.9c-8.2-9.3-12.4-21.2-11.7-33.5
						c0.7-12.4,6.2-23.7,15.5-31.9l270.8-241c2.6-2.3,5.9-3.5,9.3-3.5c4,0,7.8,1.7,10.5,4.7l55.3,62.1c2.5,2.8,3.7,6.4,3.5,10.1
						c-0.2,3.7-1.9,7.2-4.7,9.7L118.1,425.7C113.3,429.9,107.1,432.3,100.7,432.3C100.7,432.3,100.7,432.3,100.7,432.3z"/>
				</g>
				<g>
					<path class="st1" d="M339.4,90.2c2.3,0,4.6,0.9,6.3,2.8l55.3,62.1c3.1,3.5,2.8,8.7-0.7,11.8L114.3,421.4
						c-3.9,3.5-8.8,5.2-13.6,5.2c-5.6,0-11.3-2.3-15.3-6.9l-25.7-28.9c-14.9-16.8-13.4-42.5,3.3-57.5l270.8-241
						C335.4,90.9,337.4,90.2,339.4,90.2 M339.4,78.9c-4.8,0-9.5,1.8-13.1,5l-270.8,241c-21.4,19.1-23.3,52-4.3,73.4l25.7,28.9
						c6,6.8,14.7,10.7,23.8,10.7c7.8,0,15.3-2.9,21.1-8l285.9-254.5c3.9-3.5,6.3-8.3,6.6-13.6c0.3-5.2-1.5-10.3-4.9-14.2l-55.3-62.1
						C350.4,81.3,345,78.9,339.4,78.9L339.4,78.9z"/>
				</g>
			</g>
		</g>
	</g>
	<g>
		<g>
			
				<rect x="92.4" y="300.7" transform="matrix(0.6669 0.7451 -0.7451 0.6669 297.6111 14.9936)" class="st2" width="79.3" height="79.3"/>
		</g>
		<g>
			<g>
				
					<rect x="160.5" y="240.2" transform="matrix(0.6669 0.7451 -0.7451 0.6669 275.1679 -55.9418)" class="st3" width="79.3" height="79.3"/>
			</g>
		</g>
		<g>
			
				<rect x="228.2" y="179.1" transform="matrix(0.6669 0.7451 -0.7451 0.6669 252.2636 -126.7325)" class="st4" width="79.3" height="79.3"/>
		</g>
		<g>
			
				<rect x="296.4" y="118.5" transform="matrix(0.6669 0.7451 -0.7451 0.6669 229.8067 -197.7128)" class="st5" width="79.3" height="79.3"/>
		</g>
	</g>
	<g>
		<g>
			<g>
				<path class="st0" d="M57.6,442c-7.7,0-14-6.3-14-14l0-62.2c0-19.2,15.6-34.9,34.9-34.9l374-0.2c7.7,0,14,6.3,14,14l0,83.1
					c0,7.7-6.3,14-14,14L57.6,442L57.6,442z"/>
			</g>
			<g>
				<linearGradient id="SVGID_1_" gradientUnits="userSpaceOnUse" x1="44.6711" y1="469.4735" x2="388.602" y2="338.7797">
					<stop  offset="0" style="stop-color:#26C9C4"/>
					<stop  offset="1" style="stop-color:#0E490C"/>
				</linearGradient>
				<path class="st6" d="M452.4,336.3c4.6,0,8.4,3.7,8.4,8.4l0,83.1c0,4.6-3.7,8.4-8.4,8.4l-394.9,0.2c0,0,0,0,0,0
					c-4.6,0-8.4-3.7-8.4-8.4l0-62.2c0-16.2,13.1-29.2,29.2-29.3L452.4,336.3C452.4,336.3,452.4,336.3,452.4,336.3 M452.4,325
					L452.4,325l-374,0.2c-10.8,0-21,4.2-28.7,11.9c-7.7,7.7-11.9,17.9-11.9,28.7l0,62.2c0,10.9,8.8,19.7,19.7,19.7l394.9-0.2
					c5.3,0,10.2-2.1,13.9-5.8c3.7-3.7,5.8-8.7,5.8-13.9l0-83.1C472.1,333.8,463.3,325,452.4,325L452.4,325z"/>
			</g>
		</g>
	</g>
	<g>
		
			<linearGradient id="SVGID_00000062888732578602679780000004340270650671239328_" gradientUnits="userSpaceOnUse" x1="14.615" y1="390.3785" x2="358.5459" y2="259.6848">
			<stop  offset="0" style="stop-color:#26C9C4"/>
			<stop  offset="1" style="stop-color:#0E490C"/>
		</linearGradient>
		<path style="fill:url(#SVGID_00000062888732578602679780000004340270650671239328_);" d="M82.3,375.7c-9.7,7.4-20.5-0.5-18.7-10.1
			c0.8-4.3,4.2-7.8,8.5-8.6C81.7,355.2,89.6,365.9,82.3,375.7z"/>
	</g>
	<g>
		
			<rect x="97.1" y="348" transform="matrix(3.237342e-03 1 -1 3.237342e-03 524.0241 249.6433)" class="st8" width="79.3" height="79.3"/>
	</g>
	<g>
		<g>
			
				<rect x="188.3" y="348" transform="matrix(3.234182e-03 1 -1 3.234182e-03 614.8853 158.4892)" class="st9" width="79.3" height="79.3"/>
		</g>
	</g>
	<g>
		
			<rect x="279.5" y="347.4" transform="matrix(3.237619e-03 1 -1 3.237619e-03 705.1553 66.7448)" class="st10" width="79.3" height="79.3"/>
	</g>
	<g>
		
			<rect x="370.7" y="347.4" transform="matrix(3.233818e-03 1 -1 3.233818e-03 796.0742 -24.466)" class="st11" width="79.3" height="79.3"/>
	</g>
</g>
</svg>
